<svg width="16" height="10" viewBox="0 0 16 10" fill="none" xmlns="http://www.w3.org/2000/svg">
<path d="M11.3754 1.06238C11.3227 1.11467 11.2809 1.17689 11.2523 1.24543C11.2237 1.31398 11.209 1.3875 11.209 1.46176C11.209 1.53601 11.2237 1.60954 11.2523 1.67808C11.2809 1.74663 11.3227 1.80884 11.3754 1.86113L13.9629 4.44863H0.72168C0.572495 4.44863 0.429421 4.5079 0.323932 4.61338C0.218443 4.71887 0.15918 4.86195 0.15918 5.01113C0.15918 5.16032 0.218443 5.30339 0.323932 5.40888C0.429421 5.51437 0.572495 5.57363 0.72168 5.57363H13.9517L11.3754 8.14426C11.2707 8.24965 11.2119 8.39222 11.2119 8.54082C11.2119 8.68942 11.2707 8.83199 11.3754 8.93738C11.4808 9.04215 11.6234 9.10095 11.772 9.10095C11.9206 9.10095 12.0632 9.04215 12.1686 8.93738L15.7461 5.35988C15.7942 5.31368 15.8325 5.25823 15.8587 5.19685C15.8849 5.13546 15.8984 5.06942 15.8984 5.00269C15.8984 4.93597 15.8849 4.86993 15.8587 4.80854C15.8325 4.74716 15.7942 4.69171 15.7461 4.64551L12.1742 1.06238C12.1219 1.00966 12.0597 0.967814 11.9911 0.939256C11.9226 0.910699 11.8491 0.895996 11.7748 0.895996C11.7005 0.895996 11.627 0.910699 11.5585 0.939256C11.4899 0.967814 11.4277 1.00966 11.3754 1.06238Z" fill="white"/>
</svg>
