<svg width="54" height="54" viewBox="0 0 54 54" fill="none" xmlns="http://www.w3.org/2000/svg">
<rect width="54" height="54" rx="27" fill="url(#paint0_linear_2_91)"/>
<path fill-rule="evenodd" clip-rule="evenodd" d="M27 23C25.8954 23 25 23.8954 25 25C25 26.1046 25.8954 27 27 27C28.1046 27 29 26.1046 29 25C29 23.8954 28.1046 23 27 23ZM23 25C23 22.7909 24.7909 21 27 21C29.2091 21 31 22.7909 31 25C31 27.2091 29.2091 29 27 29C24.7909 29 23 27.2091 23 25Z" fill="white"/>
<path fill-rule="evenodd" clip-rule="evenodd" d="M20.636 18.636C22.3239 16.9482 24.6131 16 27 16C29.3869 16 31.6761 16.9482 33.364 18.636C35.0518 20.3239 36 22.6131 36 25C36 26.0166 35.8921 26.9121 35.611 27.7604C35.3283 28.6131 34.8871 29.3683 34.2803 30.1254C34.2723 30.1354 34.2641 30.1452 34.2557 30.1549L27.7557 37.6549C27.5657 37.8741 27.29 38 27 38C26.71 38 26.4343 37.8741 26.2443 37.6549L19.7443 30.1549C19.7359 30.1452 19.7277 30.1354 19.7197 30.1254C19.1129 29.3683 18.6717 28.6131 18.389 27.7604C18.1079 26.9121 18 26.0166 18 25C18 22.6131 18.9482 20.3239 20.636 18.636ZM27 18C25.1435 18 23.363 18.7375 22.0503 20.0503C20.7375 21.363 20 23.1435 20 25C20 25.8754 20.0931 26.5449 20.2875 27.1311C20.4788 27.7083 20.7842 28.2529 21.2686 28.86L27 35.4731L32.7314 28.86C33.2158 28.2529 33.5212 27.7083 33.7125 27.1311C33.9069 26.5449 34 25.8754 34 25C34 23.1435 33.2625 21.363 31.9497 20.0503C30.637 18.7375 28.8565 18 27 18Z" fill="white"/>
<defs>
<linearGradient id="paint0_linear_2_91" x1="-19.332" y1="-84.4364" x2="96.2664" y2="-72.7463" gradientUnits="userSpaceOnUse">
<stop stop-color="#067AF2"/>
<stop offset="0.984375" stop-color="#07ABCF"/>
</linearGradient>
</defs>
</svg>
