<svg width="54" height="54" viewBox="0 0 54 54" fill="none" xmlns="http://www.w3.org/2000/svg">
<rect width="54" height="54" rx="27" fill="url(#paint0_linear_2_100)"/>
<path fill-rule="evenodd" clip-rule="evenodd" d="M14.333 26.9997C14.333 20.0039 20.0039 14.333 26.9997 14.333C33.9955 14.333 39.6663 20.0039 39.6663 26.9997C39.6663 33.9955 33.9955 39.6663 26.9997 39.6663C20.0039 39.6663 14.333 33.9955 14.333 26.9997ZM26.9997 16.333C21.1085 16.333 16.333 21.1085 16.333 26.9997C16.333 32.8909 21.1085 37.6663 26.9997 37.6663C32.8909 37.6663 37.6663 32.8909 37.6663 26.9997C37.6663 21.1085 32.8909 16.333 26.9997 16.333Z" fill="white"/>
<path fill-rule="evenodd" clip-rule="evenodd" d="M14.333 27C14.333 26.4477 14.7807 26 15.333 26H38.6663C39.2186 26 39.6663 26.4477 39.6663 27C39.6663 27.5523 39.2186 28 38.6663 28H15.333C14.7807 28 14.333 27.5523 14.333 27Z" fill="white"/>
<path fill-rule="evenodd" clip-rule="evenodd" d="M24.4567 15.5627C25.1328 14.8478 25.9918 14.333 26.9997 14.333C28.0075 14.333 28.8665 14.8478 29.5426 15.5627C30.2167 16.2755 30.7778 17.2533 31.2279 18.3786C32.1304 20.6349 32.6663 23.6833 32.6663 26.9997C32.6663 30.3161 32.1304 33.3645 31.2279 35.6207C30.7778 36.7461 30.2167 37.7238 29.5426 38.4367C28.8665 39.1516 28.0075 39.6663 26.9997 39.6663C25.9918 39.6663 25.1328 39.1516 24.4567 38.4367C23.7826 37.7238 23.2216 36.7461 22.7714 35.6207C21.8689 33.3645 21.333 30.3161 21.333 26.9997C21.333 23.6833 21.8689 20.6349 22.7714 18.3786C23.2216 17.2533 23.7826 16.2755 24.4567 15.5627ZM24.6284 19.1214C23.8419 21.0877 23.333 23.8726 23.333 26.9997C23.333 30.1268 23.8419 32.9117 24.6284 34.8779C25.0227 35.8638 25.4673 36.5945 25.9098 37.0624C26.3503 37.5282 26.719 37.6663 26.9997 37.6663C27.2804 37.6663 27.649 37.5282 28.0895 37.0624C28.532 36.5945 28.9766 35.8638 29.371 34.8779C30.1575 32.9117 30.6663 30.1268 30.6663 26.9997C30.6663 23.8726 30.1575 21.0877 29.371 19.1214C28.9766 18.1355 28.532 17.4048 28.0895 16.9369C27.649 16.4711 27.2804 16.333 26.9997 16.333C26.719 16.333 26.3503 16.4711 25.9098 16.9369C25.4673 17.4048 25.0227 18.1355 24.6284 19.1214Z" fill="white"/>
<path fill-rule="evenodd" clip-rule="evenodd" d="M18.0438 18.208C18.4349 17.818 19.068 17.8188 19.458 18.2098C20.4471 19.2015 21.6224 19.988 22.9164 20.524C24.2104 21.06 25.5976 21.335 26.9982 21.3332H27.0008C28.4014 21.335 29.7886 21.06 31.0826 20.524C32.3766 19.988 33.5519 19.2015 34.541 18.2098C34.931 17.8188 35.5641 17.818 35.9552 18.208C36.3462 18.598 36.347 19.2312 35.957 19.6222C34.7819 20.8005 33.3854 21.7349 31.848 22.3717C30.3109 23.0084 28.6632 23.3352 26.9995 23.3332C25.3358 23.3352 23.6881 23.0084 22.151 22.3717C20.6136 21.7349 19.2171 20.8005 18.042 19.6222C17.652 19.2312 17.6528 18.598 18.0438 18.208ZM26.9995 23.3332C26.9991 23.3332 26.9986 23.3332 26.9982 23.3332L26.9995 22.3332L27.0008 23.3332C27.0004 23.3332 26.9999 23.3332 26.9995 23.3332ZM22.151 31.628C23.6881 30.9913 25.3358 30.6645 26.9995 30.6665C28.6632 30.6645 30.3109 30.9913 31.848 31.628C33.3854 32.2648 34.7819 33.1992 35.957 34.3775C36.347 34.7686 36.3462 35.4017 35.9552 35.7917C35.5641 36.1817 34.931 36.1809 34.541 35.7899C33.5519 34.7982 32.3766 34.0117 31.0826 33.4757C29.7886 32.9397 28.4014 32.6647 27.0008 32.6665H26.9982C25.5976 32.6647 24.2104 32.9397 22.9164 33.4757C21.6224 34.0117 20.4471 34.7982 19.458 35.7899C19.068 36.1809 18.4349 36.1817 18.0438 35.7917C17.6528 35.4017 17.652 34.7686 18.042 34.3775C19.2171 33.1992 20.6136 32.2648 22.151 31.628ZM26.9995 30.6665C26.9999 30.6665 27.0004 30.6665 27.0008 30.6665L26.9995 31.6665L26.9982 30.6665C26.9986 30.6665 26.9991 30.6665 26.9995 30.6665Z" fill="white"/>
<defs>
<linearGradient id="paint0_linear_2_100" x1="-19.332" y1="-84.4364" x2="96.2664" y2="-72.7463" gradientUnits="userSpaceOnUse">
<stop stop-color="#067AF2"/>
<stop offset="0.984375" stop-color="#07ABCF"/>
</linearGradient>
</defs>
</svg>
