<svg width="54" height="54" viewBox="0 0 54 54" fill="none" xmlns="http://www.w3.org/2000/svg">
<rect width="54" height="54" rx="27" fill="url(#paint0_linear_2_79)"/>
<path fill-rule="evenodd" clip-rule="evenodd" d="M25.8565 23.3379C26.3746 22.6397 26.5604 21.9038 25.9744 21.2543C24.6595 19.4143 23.7751 18.2765 23.2204 17.7285C22.1659 16.6868 20.4311 16.8277 19.5178 17.7276C19.0272 18.211 18.8612 18.377 18.3575 18.8886C15.5518 21.6958 17.2628 27.63 21.8114 32.183C26.3589 36.735 32.2926 38.4469 35.1041 35.6338C35.5689 35.1858 35.9624 34.792 36.2728 34.464C37.1678 33.518 37.3037 31.8597 36.2669 30.7824C35.7354 30.2301 34.6503 29.3885 32.7329 28.0169C32.1457 27.4918 31.4494 27.6056 30.811 28.0244C30.504 28.2259 30.2805 28.4297 29.8585 28.8521L29.0923 29.6187C28.9914 29.7197 27.621 29.0334 26.2907 27.7018C24.9597 26.3695 24.2739 24.9991 24.3743 24.8986L25.1411 24.1314C25.275 23.9974 25.339 23.9325 25.4211 23.8463C25.5921 23.6665 25.7337 23.5034 25.8565 23.3379ZM30.5057 31.0329L31.2721 30.2661C31.5044 30.0337 31.6549 29.8907 31.7773 29.7922C33.457 30.9984 34.4297 31.7568 34.8271 32.1697C35.0656 32.4176 35.0286 32.8699 34.8212 33.089C34.5342 33.3924 34.1613 33.7655 33.7037 34.2068C31.8857 36.0256 27.0959 34.6437 23.2251 30.7691C19.3531 26.8933 17.9719 22.1028 19.7762 20.2975C20.2779 19.788 20.4368 19.6291 20.9204 19.1527C21.1017 18.974 21.5955 18.9339 21.8161 19.1518C22.2431 19.5736 23.0353 20.588 24.2007 22.2113C24.1404 22.2862 24.065 22.3709 23.9733 22.4672C23.906 22.538 23.85 22.5948 23.7274 22.7175L22.9614 23.484C21.6582 24.787 22.768 27.0047 24.877 29.1157C26.9845 31.2253 29.203 32.3364 30.5057 31.0329Z" fill="white"/>
<defs>
<linearGradient id="paint0_linear_2_79" x1="-19.332" y1="-84.4364" x2="96.2664" y2="-72.7463" gradientUnits="userSpaceOnUse">
<stop stop-color="#067AF2"/>
<stop offset="0.984375" stop-color="#07ABCF"/>
</linearGradient>
</defs>
</svg>
