<svg width="30" height="30" viewBox="0 0 30 30" fill="none" xmlns="http://www.w3.org/2000/svg">
<rect width="30" height="30" rx="5" fill="url(#paint0_linear_2_115)"/>
<path d="M21.3769 8.61905C20.5476 7.78558 19.5599 7.12475 18.4712 6.6751C17.3826 6.22544 16.2149 5.99597 15.0362 6.00005C10.0975 6.00005 6.07236 10.005 6.07236 14.919C6.07236 16.494 6.48844 18.024 7.26633 19.374L6 24L10.7487 22.758C12.0603 23.469 13.5347 23.847 15.0362 23.847C19.9749 23.847 24 19.842 24 14.928C24 12.543 23.0683 10.302 21.3769 8.61905ZM15.0362 22.335C13.6975 22.335 12.3859 21.975 11.2372 21.3L10.9658 21.138L8.14372 21.876L8.89447 19.14L8.71357 18.861C7.96982 17.6793 7.5749 16.3133 7.57387 14.919C7.57387 10.833 10.9206 7.50305 15.0271 7.50305C17.0171 7.50305 18.8894 8.27705 20.2915 9.68104C20.9857 10.3686 21.5358 11.1864 21.91 12.0871C22.2842 12.9878 22.475 13.9534 22.4714 14.928C22.4894 19.014 19.1427 22.335 15.0362 22.335ZM19.1246 16.791C18.8985 16.683 17.795 16.143 17.596 16.062C17.3879 15.99 17.2432 15.954 17.0894 16.17C16.9357 16.395 16.5106 16.899 16.3839 17.043C16.2573 17.196 16.1216 17.214 15.8955 17.097C15.6693 16.989 14.9457 16.746 14.0955 15.99C13.4261 15.396 12.9829 14.667 12.8472 14.442C12.7206 14.217 12.8291 14.1 12.9467 13.983C13.0462 13.884 13.1729 13.722 13.2814 13.596C13.3899 13.47 13.4352 13.371 13.5075 13.227C13.5799 13.074 13.5437 12.948 13.4894 12.84C13.4352 12.732 12.9829 11.634 12.802 11.184C12.6211 10.752 12.4312 10.806 12.2955 10.797H11.8613C11.7075 10.797 11.4724 10.851 11.2643 11.076C11.0653 11.301 10.4864 11.841 10.4864 12.939C10.4864 14.037 11.2915 15.099 11.4 15.243C11.5085 15.396 12.9829 17.646 15.2261 18.609C15.7598 18.843 16.1759 18.978 16.5015 19.077C17.0352 19.248 17.5236 19.221 17.9126 19.167C18.3467 19.104 19.2422 18.627 19.4231 18.105C19.6131 17.583 19.6131 17.142 19.5497 17.043C19.4864 16.944 19.3508 16.899 19.1246 16.791Z" fill="white"/>
<defs>
<linearGradient id="paint0_linear_2_115" x1="-10.74" y1="-46.9091" x2="53.4813" y2="-40.4146" gradientUnits="userSpaceOnUse">
<stop stop-color="#067AF2"/>
<stop offset="0.984375" stop-color="#07ABCF"/>
</linearGradient>
</defs>
</svg>
