<svg width="30" height="30" viewBox="0 0 30 30" fill="none" xmlns="http://www.w3.org/2000/svg">
<rect width="30" height="30" rx="5" fill="url(#paint0_linear_2_111)"/>
<path d="M22.6674 6.00184C22.4451 6.01985 22.2269 6.07791 22.0213 6.17376H22.0186C21.8212 6.26087 20.8829 6.70029 19.4565 7.36637L14.3447 9.76315C10.6767 11.4823 7.07099 13.1752 7.07099 13.1752L7.11392 13.1567C7.11392 13.1567 6.86533 13.2477 6.60565 13.4458C6.44523 13.5595 6.30718 13.7082 6.19987 13.8829C6.07245 14.0911 5.96997 14.4095 6.00805 14.7387C6.07038 15.2953 6.39445 15.6291 6.62712 15.8133C6.86256 15.9999 7.08692 16.087 7.08692 16.087H7.09246L10.4738 17.3552C10.6254 17.8971 11.5042 21.1134 11.7154 21.8542C11.84 22.2967 11.9612 22.5735 12.1128 22.7847C12.1862 22.8927 12.2721 22.9829 12.3753 23.0553C12.4289 23.0901 12.4861 23.1175 12.5456 23.137L12.511 23.1278C12.5214 23.1309 12.5297 23.1401 12.5373 23.1432C12.565 23.1517 12.5837 23.1548 12.619 23.1609C13.1543 23.3413 13.5843 22.9713 13.5843 22.9713L13.6086 22.9497L15.605 20.9261L18.9509 23.7838L19.0271 23.8201C19.7244 24.1608 20.4308 23.9712 20.804 23.6366C21.18 23.2997 21.3261 22.8688 21.3261 22.8688L21.3503 22.7994L23.936 8.05249C24.0094 7.68861 24.0281 7.34787 23.9471 7.01714C23.8635 6.68243 23.6706 6.39455 23.4063 6.20999C23.1843 6.05975 22.9269 5.98723 22.6674 6.00184ZM22.5975 7.58223C22.5947 7.63079 22.603 7.6254 22.5836 7.71868V7.72716L20.0222 22.3206C20.0111 22.3415 19.9924 22.3869 19.9412 22.4324C19.8872 22.4802 19.8442 22.5103 19.6192 22.4108L15.5267 18.9178L13.0546 21.4264L13.5739 17.7337L20.2604 10.7954C20.536 10.5102 20.4439 10.45 20.4439 10.45C20.4633 10.1 20.0277 10.3475 20.0277 10.3475L11.5963 16.1625L11.5935 16.1471L7.55225 14.6323V14.6292L7.54187 14.6269C7.54895 14.6243 7.55589 14.6212 7.56264 14.6176L7.5848 14.6053L7.60627 14.5968C7.60627 14.5968 11.2147 12.9039 14.8827 11.1847C16.7191 10.3236 18.5694 9.45633 19.9924 8.78717C21.4154 8.12187 22.4673 7.63388 22.5268 7.60767C22.5836 7.583 22.5566 7.583 22.5975 7.583V7.58223Z" fill="white"/>
<defs>
<linearGradient id="paint0_linear_2_111" x1="-10.74" y1="-46.9091" x2="53.4813" y2="-40.4146" gradientUnits="userSpaceOnUse">
<stop stop-color="#067AF2"/>
<stop offset="0.984375" stop-color="#07ABCF"/>
</linearGradient>
</defs>
</svg>
