<svg width="20" height="26" viewBox="0 0 20 26" fill="none" xmlns="http://www.w3.org/2000/svg">
<path d="M17.0711 18.1776L10 25.5L2.92889 18.1776C1.53038 16.7294 0.577985 14.8843 0.192143 12.8755C-0.193699 10.8668 0.00434095 8.78468 0.76122 6.89249C1.5181 5.00031 2.79982 3.38303 4.44431 2.24518C6.0888 1.10733 8.02219 0.5 10 0.5C11.9778 0.5 13.9112 1.10733 15.5557 2.24518C17.2002 3.38303 18.4819 5.00031 19.2388 6.89249C19.9957 8.78468 20.1937 10.8668 19.8079 12.8755C19.422 14.8843 18.4696 16.7294 17.0711 18.1776ZM10 13.1564C10.5894 13.1564 11.1546 12.914 11.5713 12.4824C11.9881 12.0509 12.2222 11.4656 12.2222 10.8552C12.2222 10.2449 11.9881 9.65962 11.5713 9.22807C11.1546 8.79651 10.5894 8.55406 10 8.55406C9.41063 8.55406 8.8454 8.79651 8.42865 9.22807C8.0119 9.65962 7.77778 10.2449 7.77778 10.8552C7.77778 11.4656 8.0119 12.0509 8.42865 12.4824C8.8454 12.914 9.41063 13.1564 10 13.1564Z" fill="url(#paint0_linear_38_2775)"/>
<defs>
<linearGradient id="paint0_linear_38_2775" x1="-7.16" y1="-38.5909" x2="35.8108" y2="-35.1145" gradientUnits="userSpaceOnUse">
<stop stop-color="#067AF2"/>
<stop offset="0.984375" stop-color="#07ABCF"/>
</linearGradient>
</defs>
</svg>
