<svg width="820" height="75" viewBox="0 0 820 75" fill="none" xmlns="http://www.w3.org/2000/svg">
<g filter="url(#filter0_d_2_4024)">
<path d="M34.0952 6.72905C35.8539 14.9074 37.7366 23.39 39.7434 32.1766C41.7501 40.9633 43.7004 49.4459 45.5944 57.6242C45.7297 58.1199 45.8537 58.6268 45.9665 59.145C46.1017 59.6407 46.1243 60.1251 46.0341 60.5982C45.9665 61.0488 45.7523 61.4543 45.3915 61.8148C45.0307 62.1528 44.3881 62.3893 43.4637 62.5245C42.6745 62.6146 41.7726 62.6709 40.758 62.6935C39.7434 62.716 38.7513 62.6371 37.7817 62.4569C36.8122 62.2767 35.9441 61.95 35.1775 61.4769C34.4109 60.9812 33.9149 60.2715 33.6894 59.3478C33.509 58.5592 33.3737 57.9847 33.2835 57.6242C33.1933 57.2412 33.0919 56.6554 32.9791 55.8669C32.7537 53.8392 32.0772 52.3297 30.9499 51.3384C29.8225 50.3471 28.0751 49.8063 25.7076 49.7162C24.0616 49.6712 22.6975 49.8063 21.6152 50.1218C20.5555 50.4146 19.71 50.8765 19.0786 51.5073C18.4698 52.1157 18.0302 52.8704 17.7596 53.7716C17.489 54.6728 17.2748 55.6979 17.117 56.8469C16.8915 58.4691 16.5984 59.6745 16.2376 60.463C15.8994 61.229 15.4485 61.7697 14.8848 62.0852C14.3437 62.3781 13.6785 62.5245 12.8894 62.5245C12.1227 62.5245 11.2321 62.547 10.2175 62.5921C9.29304 62.6371 8.47005 62.5921 7.74853 62.4569C7.02702 62.3217 6.44078 62.0626 5.98983 61.6796C5.56143 61.2741 5.26831 60.7672 5.11048 60.1589C4.95265 59.528 4.96392 58.7507 5.1443 57.827C5.52761 55.7542 6.0462 53.1858 6.70008 50.1218C7.3765 47.0351 8.12057 43.7683 8.93228 40.3212C9.74398 36.8516 10.567 33.3595 11.4012 29.8448C12.258 26.3076 13.0585 23.0295 13.8025 20.0105C14.5466 16.9689 15.1892 14.3554 15.7303 12.17C16.294 9.98463 16.6661 8.52018 16.8464 7.77669C17.2297 6.28971 17.5003 5.14069 17.6581 4.32961C17.816 3.496 18.0978 2.88769 18.5037 2.50468C18.9321 2.09914 19.5972 1.87384 20.4991 1.82878C21.401 1.78372 22.799 1.78372 24.6929 1.82878C24.9184 1.82878 25.2228 1.82878 25.6061 1.82878C26.012 1.82878 26.4291 1.82878 26.8575 1.82878C27.3084 1.82878 27.7143 1.84005 28.0751 1.86258C28.4358 1.88511 28.7177 1.89637 28.9206 1.89637C29.9803 1.94143 30.8033 2.02029 31.3895 2.13294C31.9983 2.24559 32.4605 2.48215 32.7762 2.84263C33.1144 3.18058 33.3624 3.66497 33.5203 4.29581C33.6781 4.90412 33.8698 5.7152 34.0952 6.72905ZM19.2816 30.4869C19.1463 27.5355 19.7212 24.4827 21.0064 21.3285C21.8407 19.0755 22.2353 16.9802 22.1902 15.0426C21.2657 17.7687 20.4427 20.4498 19.7212 23.0858C19.0223 25.6993 18.4586 28.324 18.0302 30.96C18.0302 31.1403 18.0414 31.3092 18.064 31.4669C18.0865 31.6021 18.2895 31.6134 18.6728 31.5007C19.0786 31.3656 19.2928 31.2079 19.3154 31.0276C19.3379 30.8474 19.3267 30.6671 19.2816 30.4869ZM25.2341 41.5378C25.7076 41.5378 26.1924 41.5266 26.6884 41.504C27.207 41.4815 27.6579 41.3801 28.0412 41.1999C28.4245 41.0196 28.7064 40.738 28.8868 40.355C29.0897 39.9495 29.101 39.3975 28.9206 38.6991C28.6275 37.5951 28.3682 36.232 28.1427 34.6099C27.9172 32.9652 27.6692 31.3881 27.3986 29.8786C27.1506 28.3465 26.8688 27.0398 26.5531 25.9584C26.2374 24.8769 25.8429 24.3362 25.3694 24.3362C25.0086 24.3362 24.6479 24.8769 24.2871 25.9584C23.9489 27.0398 23.6219 28.3465 23.3063 29.8786C23.0132 31.3881 22.7313 32.9765 22.4607 34.6437C22.1902 36.2884 21.9196 37.6965 21.649 38.868C21.4461 39.6341 21.4574 40.2198 21.6829 40.6254C21.9309 41.0084 22.2578 41.2787 22.6637 41.4365C23.0921 41.5716 23.5318 41.628 23.9827 41.6054C24.4562 41.5604 24.8733 41.5378 25.2341 41.5378ZM40.4874 50.9666C40.5325 51.8453 40.5776 52.7127 40.6227 53.5688C40.6678 54.425 40.7806 55.2699 40.9609 56.1035C41.1413 56.9145 41.4119 57.7144 41.7726 58.5029C42.1559 59.2915 42.6745 60.0349 43.3284 60.7334C43.3735 58.976 43.1368 57.2863 42.6182 55.6641C42.1221 54.0194 41.4119 52.4536 40.4874 50.9666Z" fill="white"/>
<path d="M77.8598 2.80883C79.3931 3.52979 80.6219 4.47605 81.5463 5.64761C82.4708 6.79664 83.2261 8.06958 83.8124 9.46644C84.4211 10.8408 84.8946 12.2939 85.2329 13.826C85.5936 15.3355 85.9544 16.8225 86.3151 18.2869C87.3749 22.7704 87.8935 27.2426 87.8709 31.7035C87.8484 36.1419 87.4876 40.6028 86.7886 45.0863C86.2926 48.3532 85.323 51.237 83.88 53.7378C82.4595 56.2161 80.6895 58.2325 78.5701 59.7871C76.4506 61.3417 74.0493 62.3443 71.3662 62.7949C68.683 63.268 65.8195 63.0877 62.7756 62.2541C60.4983 61.6458 58.4127 60.4292 56.5187 58.6043C54.6472 56.7794 53.1929 54.6052 52.1557 52.0819C50.8254 48.8375 49.8221 45.5031 49.1457 42.0786C48.4918 38.6315 48.2099 34.8126 48.3001 30.6221C48.4354 29.2252 48.5481 27.7833 48.6383 26.2963C48.7285 24.7868 48.8864 23.2548 49.1118 21.7002C49.3599 20.1231 49.6642 18.546 50.025 16.9689C50.3858 15.3693 50.9156 13.7809 51.6146 12.2038C52.7194 9.52276 54.2977 7.33736 56.3496 5.64761C58.4014 3.93533 60.6561 2.69618 63.1138 1.93017C65.5715 1.16415 68.0855 0.871257 70.6559 1.0515C73.2489 1.20921 75.6502 1.79499 77.8598 2.80883ZM76.135 18.0166C75.436 16.8225 74.6356 15.6847 73.7337 14.6033C72.8318 13.5218 71.5804 12.5192 69.9795 11.5955C70.2952 12.5192 70.7123 13.2965 71.2309 13.9274C71.772 14.5357 72.3132 15.0651 72.8543 15.5157C73.418 15.9438 73.993 16.3606 74.5792 16.7661C75.1654 17.1492 75.684 17.566 76.135 18.0166ZM67.1385 7.64151C65.9435 7.46127 64.7372 7.54013 63.5197 7.87808C62.3246 8.21602 61.2085 8.74548 60.1714 9.46644C59.1342 10.1874 58.2548 11.0661 57.5333 12.1024C56.8118 13.1388 56.3608 14.209 56.1805 15.313C57.9392 14.0738 59.7091 12.8347 61.4904 11.5955C63.2716 10.3338 65.1543 9.01584 67.1385 7.64151ZM57.9053 44.3766C58.4239 47.0126 59.2469 48.8601 60.3743 49.919C61.5017 50.9779 63.2491 51.5299 65.6166 51.5749C64.0382 50.471 62.5614 49.4008 61.186 48.3644C59.8331 47.328 58.7396 45.9988 57.9053 44.3766ZM62.2006 41.842C62.6741 43.9147 63.4633 45.5369 64.5681 46.7085C65.6729 47.88 67.0596 48.4883 68.7281 48.5334C69.6075 48.5334 70.3515 48.3419 70.9603 47.9589C71.5916 47.5533 72.1215 47.0239 72.5499 46.3705C73.0009 45.6946 73.3616 44.9286 73.6322 44.0725C73.9253 43.2163 74.1621 42.3264 74.3424 41.4027C74.613 40.2987 74.7483 39.1384 74.7483 37.9218C74.7483 36.7052 74.7934 35.4885 74.8836 34.2719C74.9287 32.1992 74.8498 30.194 74.6468 28.2564C74.4439 26.3188 74.0155 24.4038 73.3616 22.5113C72.7077 20.754 71.8171 19.267 70.6898 18.0504C69.5624 16.8337 68.2659 16.248 66.8003 16.293C66.1013 16.3381 65.4813 16.5859 64.9401 17.0365C64.4216 17.4646 63.9593 18.0166 63.5535 18.6925C63.1702 19.3458 62.8432 20.0781 62.5727 20.8891C62.3246 21.7002 62.1555 22.5226 62.0653 23.3562C61.6144 26.3977 61.3664 29.473 61.3213 32.5822C61.2762 35.6913 61.5693 38.7779 62.2006 41.842ZM70.3177 54.9882C71.896 54.9432 73.2376 54.7517 74.3424 54.4137C75.4473 54.0532 76.383 53.5463 77.1496 52.8929C77.9162 52.217 78.5363 51.3609 79.0098 50.3245C79.5058 49.2656 79.8891 48.0039 80.1597 46.5395C79.6411 47.5533 79.0323 48.4433 78.3333 49.2093C77.6569 49.9753 76.8903 50.685 76.0335 51.3384C75.1767 51.9692 74.2635 52.5888 73.294 53.1971C72.3244 53.7829 71.3324 54.3799 70.3177 54.9882Z" fill="white"/>
<path d="M117.6 53.0281C116.112 52.938 115.086 53.276 114.522 54.042C113.936 54.8305 113.575 55.9007 113.44 57.2525C113.44 58.5367 113.474 59.7758 113.541 60.9699C113.609 62.164 113.361 63.5271 112.797 65.0591C112.527 65.8477 112.82 66.1406 113.676 65.9378C114.533 65.7575 115.525 65.2619 116.653 64.4508C117.78 63.6623 118.851 62.6146 119.866 61.3079C120.88 60.0237 121.455 58.6719 121.591 57.2525C121.748 55.7655 121.455 54.7066 120.711 54.0758C119.967 53.4675 118.93 53.1182 117.6 53.0281ZM116.01 54.9544C116.1 54.8643 116.269 54.8643 116.517 54.9544C116.765 55.0446 116.912 55.1347 116.957 55.2248C117.137 55.9232 117.104 56.5653 116.856 57.1511C116.608 57.7594 116.157 58.4353 115.503 59.1788C115.142 58.3452 114.973 57.5904 114.995 56.9145C115.018 56.2612 115.356 55.6078 116.01 54.9544ZM130.689 53.0281C129.2 52.938 128.174 53.276 127.611 54.042C127.025 54.8305 126.664 55.9007 126.529 57.2525C126.529 58.5367 126.562 59.7758 126.63 60.9699C126.698 62.164 126.45 63.5271 125.886 65.0591C125.615 65.8477 125.908 66.1406 126.765 65.9378C127.622 65.7575 128.614 65.2619 129.742 64.4508C130.869 63.6623 131.94 62.6146 132.955 61.3079C133.969 60.0237 134.544 58.6719 134.679 57.2525C134.837 55.7655 134.544 54.7066 133.8 54.0758C133.056 53.4675 132.019 53.1182 130.689 53.0281ZM129.099 54.9544C129.189 54.8643 129.358 54.8643 129.606 54.9544C129.854 55.0446 130.001 55.1347 130.046 55.2248C130.226 55.9232 130.192 56.5653 129.944 57.1511C129.696 57.7594 129.245 58.4353 128.592 59.1788C128.231 58.3452 128.062 57.5904 128.084 56.9145C128.107 56.2612 128.445 55.6078 129.099 54.9544Z" fill="white"/>
<path d="M169.177 2.80883C170.71 3.52979 171.939 4.47605 172.864 5.64761C173.788 6.79664 174.543 8.06958 175.13 9.46644C175.738 10.8408 176.212 12.2939 176.55 13.826C176.911 15.3355 177.272 16.8225 177.632 18.2869C178.692 22.7704 179.211 27.2426 179.188 31.7035C179.166 36.1419 178.805 40.6028 178.106 45.0863C177.61 48.3532 176.64 51.237 175.197 53.7378C173.777 56.2161 172.007 58.2325 169.887 59.7871C167.768 61.3417 165.367 62.3443 162.683 62.7949C160 63.268 157.137 63.0877 154.093 62.2541C151.815 61.6458 149.73 60.4292 147.836 58.6043C145.964 56.7794 144.51 54.6052 143.473 52.0819C142.143 48.8375 141.139 45.5031 140.463 42.0786C139.809 38.6315 139.527 34.8126 139.617 30.6221C139.753 29.2252 139.865 27.7833 139.956 26.2963C140.046 24.7868 140.204 23.2548 140.429 21.7002C140.677 20.1231 140.981 18.546 141.342 16.9689C141.703 15.3693 142.233 13.7809 142.932 12.2038C144.037 9.52276 145.615 7.33736 147.667 5.64761C149.719 3.93533 151.973 2.69618 154.431 1.93017C156.889 1.16415 159.403 0.871257 161.973 1.0515C164.566 1.20921 166.967 1.79499 169.177 2.80883ZM167.452 18.0166C166.753 16.8225 165.953 15.6847 165.051 14.6033C164.149 13.5218 162.898 12.5192 161.297 11.5955C161.612 12.5192 162.029 13.2965 162.548 13.9274C163.089 14.5357 163.63 15.0651 164.171 15.5157C164.735 15.9438 165.31 16.3606 165.896 16.7661C166.483 17.1492 167.001 17.566 167.452 18.0166ZM158.456 7.64151C157.261 7.46127 156.054 7.54013 154.837 7.87808C153.642 8.21602 152.526 8.74548 151.489 9.46644C150.451 10.1874 149.572 11.0661 148.85 12.1024C148.129 13.1388 147.678 14.209 147.498 15.313C149.256 14.0738 151.026 12.8347 152.808 11.5955C154.589 10.3338 156.472 9.01584 158.456 7.64151ZM149.223 44.3766C149.741 47.0126 150.564 48.8601 151.691 49.919C152.819 50.9779 154.566 51.5299 156.934 51.5749C155.355 50.471 153.879 49.4008 152.503 48.3644C151.15 47.328 150.057 45.9988 149.223 44.3766ZM153.518 41.842C153.991 43.9147 154.78 45.5369 155.885 46.7085C156.99 47.88 158.377 48.4883 160.045 48.5334C160.925 48.5334 161.669 48.3419 162.277 47.9589C162.909 47.5533 163.439 47.0239 163.867 46.3705C164.318 45.6946 164.679 44.9286 164.949 44.0725C165.242 43.2163 165.479 42.3264 165.66 41.4027C165.93 40.2987 166.065 39.1384 166.065 37.9218C166.065 36.7052 166.111 35.4885 166.201 34.2719C166.246 32.1992 166.167 30.194 165.964 28.2564C165.761 26.3188 165.333 24.4038 164.679 22.5113C164.025 20.754 163.134 19.267 162.007 18.0504C160.88 16.8337 159.583 16.248 158.117 16.293C157.419 16.3381 156.798 16.5859 156.257 17.0365C155.739 17.4646 155.277 18.0166 154.871 18.6925C154.487 19.3458 154.16 20.0781 153.89 20.8891C153.642 21.7002 153.473 22.5226 153.383 23.3562C152.932 26.3977 152.684 29.473 152.638 32.5822C152.593 35.6913 152.886 38.7779 153.518 41.842ZM161.635 54.9882C163.213 54.9432 164.555 54.7517 165.66 54.4137C166.764 54.0532 167.7 53.5463 168.467 52.8929C169.233 52.217 169.853 51.3609 170.327 50.3245C170.823 49.2656 171.206 48.0039 171.477 46.5395C170.958 47.5533 170.349 48.4433 169.651 49.2093C168.974 49.9753 168.207 50.685 167.351 51.3384C166.494 51.9692 165.581 52.5888 164.611 53.1971C163.642 53.7829 162.65 54.3799 161.635 54.9882Z" fill="white"/>
<path d="M189.639 12.9811C190.969 13.0712 192.006 13.4317 192.75 14.0625C193.494 14.6709 193.788 15.7185 193.63 17.2055C193.494 18.6249 192.919 19.9879 191.905 21.2947C190.89 22.5789 189.819 23.6265 188.692 24.4376C187.564 25.2261 186.572 25.7218 185.716 25.9246C184.859 26.1048 184.566 25.8007 184.836 25.0121C185.4 23.4801 185.648 22.117 185.58 20.9229C185.513 19.7288 185.479 18.4897 185.479 17.2055C185.614 15.8537 185.964 14.7948 186.527 14.0288C187.114 13.2402 188.151 12.891 189.639 12.9811ZM188.049 14.9074C187.395 15.5608 187.057 16.2254 187.035 16.9013C187.012 17.5547 187.181 18.2982 187.542 19.1318C188.196 18.3883 188.647 17.7237 188.895 17.1379C189.143 16.5296 189.177 15.8762 188.996 15.1778C188.951 15.0877 188.805 14.9975 188.557 14.9074C188.309 14.8173 188.139 14.8173 188.049 14.9074Z" fill="white"/>
<path d="M227.688 1.6936C228.206 1.6936 228.623 1.82878 228.939 2.09914C229.277 2.3695 229.537 2.74124 229.717 3.21437C229.897 3.66497 230.01 4.18316 230.055 4.76894C230.1 5.35472 230.1 5.91797 230.055 6.45869C230.055 7.02194 229.762 8.20476 229.176 10.0072C228.612 11.787 227.868 13.9499 226.944 16.4958C226.019 19.0417 224.982 21.8467 223.832 24.9107C222.682 27.9748 221.498 31.0727 220.281 34.2043C219.086 37.3135 217.925 40.3212 216.797 43.2276C215.67 46.134 214.667 48.7136 213.787 50.9666H219.604C222.04 50.8765 223.866 50.8765 225.083 50.9666C226.324 51.0567 227.169 51.3496 227.62 51.8453C228.094 52.3184 228.33 53.0507 228.33 54.042C228.33 55.0333 228.33 56.3626 228.33 58.0298C228.285 59.6519 227.936 60.801 227.282 61.4769C226.628 62.1302 225.546 62.4794 224.035 62.5245H209.221C208.928 62.5696 208.613 62.5921 208.274 62.5921C207.936 62.5921 207.508 62.5921 206.989 62.5921L206.854 62.5245H204.08H202.897H202.694H202.559C201.814 62.5245 201.24 62.4569 200.834 62.3217C199.774 62.0964 199.019 61.6008 198.568 60.8348C198.139 60.0687 198.173 58.7169 198.669 56.7794V56.7118C198.669 56.6217 198.883 55.9683 199.312 54.7517C199.763 53.5125 200.349 51.9242 201.07 49.9866C201.792 48.049 202.615 45.8749 203.539 43.4641C204.464 41.0309 205.4 38.5526 206.346 36.0293C207.293 33.4834 208.229 30.9938 209.154 28.5606C210.078 26.1048 210.901 23.9081 211.623 21.9706C212.367 20.033 212.964 18.4559 213.415 17.2393C213.889 16.0001 214.148 15.313 214.193 15.1778C214.373 14.3892 214.351 13.8035 214.125 13.4204C213.9 13.0374 213.573 12.7558 213.145 12.5756C212.739 12.3728 212.288 12.2714 211.792 12.2714C211.318 12.2714 210.969 12.2714 210.743 12.2714C210.495 12.2264 210.134 12.2151 209.661 12.2376C209.21 12.2602 208.872 12.2714 208.646 12.2714C207.045 12.2264 205.715 12.1813 204.655 12.1362C203.618 12.0912 202.784 11.8546 202.153 11.4265C201.544 10.9759 201.127 10.2437 200.901 9.22987C200.676 8.21602 200.563 6.69525 200.563 4.66756V4.26202C200.653 2.5948 201.409 1.76119 202.829 1.76119C204.498 1.76119 206.403 1.74993 208.545 1.7274C210.687 1.70487 212.885 1.6936 215.14 1.6936C217.417 1.6936 219.649 1.6936 221.837 1.6936C224.046 1.6936 225.997 1.6936 227.688 1.6936ZM202.761 6.25592C203.731 5.78279 204.633 5.35472 205.467 4.97171C206.301 4.5887 207.158 4.20569 208.038 3.82268C206.549 3.32702 205.456 3.2369 204.757 3.55232C204.08 3.86774 203.415 4.76894 202.761 6.25592ZM208.308 53.6026C209.548 52.1157 210.258 50.5386 210.439 48.8713C210.642 47.1816 210.721 45.4581 210.676 43.7007C209.886 45.2328 209.266 46.8324 208.815 48.4996C208.387 50.1443 208.218 51.8453 208.308 53.6026Z" fill="white"/>
<path d="M265.263 23.8293C265.015 24.9333 264.812 25.8232 264.654 26.4991C264.496 27.175 264.429 27.8058 264.451 28.3916C264.474 28.9549 264.62 29.5519 264.891 30.1827C265.184 30.791 265.669 31.6021 266.345 32.616C267.315 34.103 268.025 35.8828 268.476 37.9556C268.949 40.0283 269.198 42.1912 269.22 44.4442C269.243 46.6747 269.062 48.8488 268.679 50.9666C268.296 53.0844 267.732 54.9319 266.988 56.509C266.199 58.2663 264.936 59.7083 263.2 60.8348C261.464 61.9613 259.491 62.5696 257.281 62.6597C255.477 62.6597 253.798 62.6709 252.242 62.6935C250.709 62.716 249.209 62.7273 247.744 62.7273C246.301 62.7273 244.824 62.7273 243.313 62.7273C241.825 62.7273 240.224 62.7047 238.51 62.6597C234.948 62.6146 233.099 60.9812 232.964 57.7594C232.874 56.2274 232.795 54.0758 232.727 51.3046C232.659 48.5334 232.603 45.4693 232.558 42.1124C232.513 38.7329 232.479 35.2407 232.456 31.6359C232.434 28.0086 232.423 24.5615 232.423 21.2947C232.423 18.0053 232.434 15.0764 232.456 12.508C232.479 9.91704 232.513 7.9682 232.558 6.66146C232.603 4.22822 233.854 2.88769 236.312 2.63986C237.597 2.54974 238.792 2.43709 239.897 2.30191C241.002 2.16673 242.095 2.05408 243.178 1.96396C244.26 1.87384 245.354 1.81752 246.458 1.79499C247.586 1.77246 248.77 1.78372 250.01 1.82878C256.345 2.18926 260.844 4.22822 263.504 7.94567C266.187 11.6631 266.864 16.6873 265.534 23.0182C265.488 23.1534 265.443 23.2886 265.398 23.4237C265.353 23.5589 265.308 23.6941 265.263 23.8293ZM259.141 12.2714C258.69 11.2125 258.228 10.3676 257.755 9.7368C257.304 9.08343 256.785 8.63283 256.199 8.385C255.635 8.11464 254.981 8.02452 254.237 8.11464C253.493 8.20476 252.591 8.44132 251.532 8.82433C252.772 9.36505 253.989 9.91704 255.184 10.4803C256.402 11.021 257.721 11.618 259.141 12.2714ZM244.531 25.0121C245.5 25.2374 246.447 25.3951 247.372 25.4852C248.161 25.5754 249.006 25.5866 249.908 25.519C250.81 25.4514 251.633 25.2374 252.377 24.8769C253.144 24.4489 253.764 23.8969 254.237 23.221C254.733 22.5226 255.049 21.7791 255.184 20.9905C255.342 20.202 255.297 19.4134 255.049 18.6249C254.824 17.8138 254.418 17.0816 253.831 16.4282C253.268 15.8649 252.467 15.5157 251.43 15.3806C250.393 15.2454 249.367 15.2228 248.352 15.313C247.157 15.4031 245.883 15.5946 244.531 15.8875V25.0121ZM254.643 58.5029C256.131 58.7282 257.518 58.593 258.803 58.0974C260.088 57.5792 261.171 56.8244 262.05 55.8331C262.929 54.8418 263.549 53.6815 263.91 52.3522C264.293 51.023 264.305 49.6148 263.944 48.1279C263.854 50.0654 263.482 51.5411 262.828 52.555C262.174 53.5688 261.385 54.3799 260.46 54.9882C259.536 55.574 258.555 56.1035 257.518 56.5766C256.481 57.0272 255.522 57.6693 254.643 58.5029ZM254.981 42.2475C254.305 41.5942 253.55 41.1098 252.715 40.7943C251.881 40.4789 251.002 40.31 250.077 40.2874C249.153 40.2649 248.217 40.3888 247.27 40.6592C246.323 40.9295 245.41 41.3463 244.531 41.9096V46.6747C244.531 47.9138 244.519 49.1079 244.497 50.2569C244.474 51.3834 244.486 52.1269 244.531 52.4874C246.763 52.8028 248.724 52.8704 250.415 52.6902C252.129 52.5099 253.651 51.7552 254.981 50.4259C255.455 49.9528 255.827 49.367 256.097 48.6686C256.391 47.9476 256.537 47.1929 256.537 46.4043C256.537 45.6158 256.413 44.8497 256.165 44.1063C255.94 43.3628 255.545 42.7432 254.981 42.2475Z" fill="white"/>
<path d="M298.171 50.4259C299.343 50.4259 300.133 50.6963 300.538 51.237C300.944 51.7552 301.17 52.6338 301.215 53.873C301.215 56.1711 301.125 57.9397 300.944 59.1788C300.764 60.3954 300.336 61.2628 299.659 61.781C299.005 62.2767 298.024 62.547 296.717 62.5921C295.431 62.6371 293.684 62.6597 291.474 62.6597C290.55 62.6146 289.377 62.6034 287.957 62.6259C286.559 62.6484 285.093 62.6597 283.56 62.6597C282.05 62.6597 280.584 62.6709 279.163 62.6935C277.766 62.716 276.604 62.7047 275.68 62.6597C274.846 62.6597 274.181 62.5696 273.684 62.3893C273.211 62.2091 272.828 61.9162 272.535 61.5107C272.264 61.0826 272.061 60.5193 271.926 59.8209C271.79 59.1225 271.655 58.2438 271.52 57.1849C271.475 57.0047 271.452 56.2048 271.452 54.7855C271.452 53.3435 271.452 51.5073 271.452 49.2769C271.452 47.0239 271.452 44.5005 271.452 41.7068C271.452 38.8906 271.464 35.9955 271.486 33.0215C271.509 30.025 271.52 27.0623 271.52 24.1334C271.52 21.2045 271.531 18.5347 271.554 16.124C271.576 13.6908 271.576 11.6406 271.554 9.97336C271.531 8.28362 271.52 7.15712 271.52 6.59387C271.52 6.05315 271.542 5.4899 271.588 4.90412C271.633 4.31834 271.734 3.80015 271.892 3.34955C272.05 2.87642 272.287 2.49341 272.602 2.20053C272.94 1.90764 273.358 1.76119 273.854 1.76119C275.567 1.76119 277.518 1.77246 279.705 1.79499C281.914 1.81752 284.158 1.82878 286.435 1.82878C288.735 1.82878 290.956 1.84005 293.098 1.86258C295.24 1.88511 297.123 1.89637 298.746 1.89637C300.166 1.89637 300.922 2.72998 301.012 4.3972C301.057 4.48732 301.08 4.6225 301.08 4.80274C301.035 7.4838 300.956 9.53403 300.843 10.9534C300.73 12.3503 300.448 13.3867 299.997 14.0625C299.569 14.7159 298.904 15.0877 298.002 15.1778C297.1 15.2679 295.849 15.3355 294.248 15.3806H290.494C288.87 15.4256 287.585 15.4707 286.638 15.5157C285.691 15.5608 284.981 15.7974 284.507 16.2254C284.056 16.631 283.786 17.3294 283.696 18.3207C283.605 19.312 283.605 20.799 283.696 22.7816C283.831 23.435 284.068 23.8743 284.406 24.0996C284.767 24.3024 285.206 24.4038 285.725 24.4038C286.694 24.4489 287.664 24.4714 288.633 24.4714C289.603 24.4714 290.55 24.4939 291.474 24.539C293.278 24.584 294.462 24.9558 295.026 25.6542C295.612 26.3301 295.882 27.5918 295.837 29.4392C295.837 30.3179 295.815 31.1966 295.77 32.0753C295.725 32.9539 295.555 33.7425 295.262 34.4409C294.992 35.1168 294.53 35.6688 293.876 36.0969C293.244 36.5024 292.32 36.6601 291.102 36.57C289.208 36.4799 287.765 36.4235 286.773 36.401C285.781 36.3785 285.082 36.5812 284.676 37.0093C284.27 37.4149 284.034 38.1358 283.966 39.1722C283.921 40.2086 283.932 41.7631 284 43.8359C284.045 44.8948 284.056 45.8298 284.034 46.6409C284.011 47.452 284.079 48.1391 284.237 48.7024C284.395 49.2431 284.676 49.6599 285.082 49.9528C285.511 50.2231 286.187 50.3583 287.111 50.3583C289.051 50.4034 290.922 50.4372 292.726 50.4597C294.552 50.4822 296.367 50.471 298.171 50.4259ZM294.451 9.0271C294.496 9.20734 294.484 9.42138 294.417 9.66921C294.349 9.89451 294.315 10.1085 294.315 10.3113C294.315 10.5141 294.383 10.6718 294.518 10.7844C294.654 10.8971 294.969 10.9534 295.465 10.9534C296.074 10.9534 296.559 10.8182 296.92 10.5479C297.303 10.2775 297.517 9.83818 297.562 9.22987C297.607 8.66662 297.585 8.11464 297.495 7.57392C297.404 7.01067 296.965 6.68399 296.176 6.59387C295.657 6.54881 295.307 6.59387 295.127 6.72905C294.947 6.86423 294.823 7.067 294.755 7.33736C294.687 7.58519 294.642 7.86681 294.62 8.18223C294.597 8.47512 294.541 8.75674 294.451 9.0271Z" fill="white"/>
<path d="M333.142 39.2736C333.57 40.0621 334.078 41.29 334.664 42.9572C335.273 44.6019 335.949 46.4043 336.693 48.3644C337.437 50.3245 338.193 52.2959 338.959 54.2785C339.749 56.2612 340.515 58.0185 341.259 59.5505C341.62 60.3391 341.755 60.9474 341.665 61.3755C341.575 61.781 341.27 62.0626 340.752 62.2203C340.256 62.3781 339.568 62.4794 338.689 62.5245C337.809 62.5696 336.817 62.6146 335.712 62.6597C334.517 62.7047 333.537 62.7273 332.77 62.7273C332.003 62.7273 331.383 62.6709 330.91 62.5583C330.459 62.4456 330.109 62.2767 329.861 62.0514C329.613 61.8035 329.399 61.4994 329.219 61.1389C328.7 60.1701 328.058 58.8521 327.291 57.1849C326.547 55.4952 325.758 53.7265 324.924 51.8791C324.089 50.0316 323.311 48.2856 322.59 46.6409C321.868 44.9962 321.305 43.757 320.899 42.9234C320.628 42.3377 320.143 41.6392 319.445 40.8281C318.746 40.0171 318.069 39.5665 317.415 39.4763H317.348C316.581 39.5665 316.074 39.8706 315.826 40.3888C315.6 40.8845 315.533 41.5942 315.623 42.5179C315.668 43.2163 315.713 44.3879 315.758 46.0326C315.803 47.6547 315.837 49.367 315.859 51.1694C315.882 52.9718 315.905 54.6953 315.927 56.34C315.95 57.9622 315.995 59.1225 316.062 59.8209C316.062 60.6095 315.983 61.2065 315.826 61.612C315.69 61.995 315.533 62.2541 315.352 62.3893C315.172 62.5245 314.98 62.5921 314.777 62.5921C314.597 62.5921 314.484 62.5921 314.439 62.5921C314.168 62.5921 313.537 62.6034 312.545 62.6259C311.553 62.6484 310.504 62.6597 309.4 62.6597C308.295 62.6597 307.246 62.6597 306.254 62.6597C305.262 62.6597 304.62 62.6597 304.326 62.6597C303.966 62.6597 303.718 62.333 303.582 61.6796C303.447 61.0037 303.379 60.4067 303.379 59.8885C303.379 59.0999 303.379 57.7369 303.379 55.7993C303.379 53.8617 303.379 51.5975 303.379 49.0065C303.379 46.393 303.391 43.5317 303.413 40.4226C303.436 37.2909 303.447 34.1593 303.447 31.0276C303.447 27.8959 303.447 24.8431 303.447 21.8692C303.447 18.8952 303.458 16.2254 303.481 13.8598C303.503 11.4716 303.526 9.5115 303.549 7.97946C303.571 6.42489 303.582 5.50116 303.582 5.20828C303.627 4.37467 303.695 3.66497 303.785 3.07919C303.875 2.47088 304.383 2.05408 305.307 1.82878C305.961 1.6936 306.874 1.58095 308.047 1.49083C309.219 1.40071 310.369 1.40071 311.497 1.49083C312.646 1.58095 313.65 1.78372 314.507 2.09914C315.386 2.41456 315.826 2.89895 315.826 3.55232C315.735 4.61123 315.668 5.88417 315.623 7.37115C315.578 8.8356 315.544 10.3676 315.521 11.9673C315.499 13.5669 315.476 15.1778 315.454 16.7999C315.431 18.3996 315.42 19.8978 315.42 21.2947C315.42 22.669 315.42 23.8518 315.42 24.8431C315.42 25.8345 315.42 26.4878 315.42 26.8032C315.465 27.3665 315.544 27.9072 315.657 28.4254C315.769 28.9211 316.153 29.1914 316.806 29.2365C317.641 29.3266 318.295 29.3604 318.768 29.3379C319.264 29.3153 319.67 29.214 319.986 29.0337C320.324 28.8535 320.64 28.5493 320.933 28.1212C321.226 27.6706 321.632 27.0511 322.15 26.2625C323.075 24.0996 324.01 21.7678 324.957 19.267C325.904 16.7661 326.761 14.4343 327.528 12.2714C328.317 10.1085 328.971 8.28362 329.489 6.79664C330.031 5.28713 330.38 4.41973 330.538 4.19443C330.673 3.90154 330.831 3.59738 331.011 3.28196C331.192 2.96654 331.406 2.67365 331.654 2.40329C331.925 2.11041 332.206 1.90764 332.499 1.79499C332.793 1.68234 333.131 1.6936 333.514 1.82878C334.055 2.05408 334.788 2.27938 335.712 2.50468C336.637 2.70745 337.539 2.95528 338.418 3.24817C339.298 3.54106 340.053 3.87901 340.684 4.26202C341.338 4.6225 341.665 5.05057 341.665 5.54622C341.71 5.97429 341.665 6.36857 341.53 6.72905C341.394 7.067 341.259 7.41621 341.124 7.77669C340.944 8.18223 340.639 8.99331 340.211 10.2099C339.805 11.404 339.331 12.8009 338.79 14.4005C338.272 15.9776 337.719 17.6448 337.133 19.4022C336.569 21.1595 336.028 22.7816 335.51 24.2686C334.991 25.7331 334.563 26.9835 334.224 28.0199C333.886 29.0562 333.695 29.6195 333.649 29.7096C333.311 30.2729 333.029 30.9375 332.804 31.7035C332.578 32.447 332.432 33.2468 332.364 34.103C332.297 34.9591 332.319 35.8265 332.432 36.7052C332.545 37.5838 332.781 38.44 333.142 39.2736ZM312.917 60.1589C313.391 58.4691 313.593 56.7794 313.526 55.0896C313.458 53.3999 313.165 51.6989 312.646 49.9866C312.466 50.8652 312.286 51.7326 312.105 52.5888C311.925 53.4449 311.823 54.3011 311.801 55.1572C311.778 56.0133 311.846 56.8582 312.004 57.6918C312.162 58.5254 312.466 59.3478 312.917 60.1589Z" fill="white"/>
<path d="M370.548 50.4259C371.721 50.4259 372.51 50.6963 372.916 51.237C373.322 51.7552 373.547 52.6338 373.592 53.873C373.592 56.1711 373.502 57.9397 373.322 59.1788C373.141 60.3954 372.713 61.2628 372.036 61.781C371.383 62.2767 370.402 62.547 369.094 62.5921C367.809 62.6371 366.061 62.6597 363.852 62.6597C362.927 62.6146 361.755 62.6034 360.334 62.6259C358.936 62.6484 357.471 62.6597 355.938 62.6597C354.427 62.6597 352.961 62.6709 351.541 62.6935C350.143 62.716 348.982 62.7047 348.057 62.6597C347.223 62.6597 346.558 62.5696 346.062 62.3893C345.588 62.2091 345.205 61.9162 344.912 61.5107C344.641 61.0826 344.438 60.5193 344.303 59.8209C344.168 59.1225 344.033 58.2438 343.897 57.1849C343.852 57.0047 343.83 56.2048 343.83 54.7855C343.83 53.3435 343.83 51.5073 343.83 49.2769C343.83 47.0239 343.83 44.5005 343.83 41.7068C343.83 38.8906 343.841 35.9955 343.863 33.0215C343.886 30.025 343.897 27.0623 343.897 24.1334C343.897 21.2045 343.909 18.5347 343.931 16.124C343.954 13.6908 343.954 11.6406 343.931 9.97336C343.909 8.28362 343.897 7.15712 343.897 6.59387C343.897 6.05315 343.92 5.4899 343.965 4.90412C344.01 4.31834 344.111 3.80015 344.269 3.34955C344.427 2.87642 344.664 2.49341 344.979 2.20053C345.318 1.90764 345.735 1.76119 346.231 1.76119C347.944 1.76119 349.895 1.77246 352.082 1.79499C354.292 1.81752 356.535 1.82878 358.812 1.82878C361.112 1.82878 363.333 1.84005 365.475 1.86258C367.617 1.88511 369.5 1.89637 371.123 1.89637C372.544 1.89637 373.299 2.72998 373.389 4.3972C373.434 4.48732 373.457 4.6225 373.457 4.80274C373.412 7.4838 373.333 9.53403 373.22 10.9534C373.107 12.3503 372.826 13.3867 372.375 14.0625C371.946 14.7159 371.281 15.0877 370.379 15.1778C369.477 15.2679 368.226 15.3355 366.625 15.3806H362.871C361.247 15.4256 359.962 15.4707 359.015 15.5157C358.068 15.5608 357.358 15.7974 356.885 16.2254C356.434 16.631 356.163 17.3294 356.073 18.3207C355.983 19.312 355.983 20.799 356.073 22.7816C356.208 23.435 356.445 23.8743 356.783 24.0996C357.144 24.3024 357.584 24.4038 358.102 24.4038C359.072 24.4489 360.041 24.4714 361.011 24.4714C361.98 24.4714 362.927 24.4939 363.852 24.539C365.656 24.584 366.839 24.9558 367.403 25.6542C367.989 26.3301 368.26 27.5918 368.215 29.4392C368.215 30.3179 368.192 31.1966 368.147 32.0753C368.102 32.9539 367.933 33.7425 367.64 34.4409C367.369 35.1168 366.907 35.6688 366.253 36.0969C365.622 36.5024 364.697 36.6601 363.48 36.57C361.586 36.4799 360.143 36.4235 359.151 36.401C358.158 36.3785 357.46 36.5812 357.054 37.0093C356.648 37.4149 356.411 38.1358 356.343 39.1722C356.298 40.2086 356.31 41.7631 356.377 43.8359C356.422 44.8948 356.434 45.8298 356.411 46.6409C356.389 47.452 356.456 48.1391 356.614 48.7024C356.772 49.2431 357.054 49.6599 357.46 49.9528C357.888 50.2231 358.564 50.3583 359.489 50.3583C361.428 50.4034 363.299 50.4372 365.103 50.4597C366.929 50.4822 368.745 50.471 370.548 50.4259ZM366.828 9.0271C366.873 9.20734 366.862 9.42138 366.794 9.66921C366.727 9.89451 366.693 10.1085 366.693 10.3113C366.693 10.5141 366.76 10.6718 366.896 10.7844C367.031 10.8971 367.347 10.9534 367.843 10.9534C368.451 10.9534 368.936 10.8182 369.297 10.5479C369.68 10.2775 369.894 9.83818 369.94 9.22987C369.985 8.66662 369.962 8.11464 369.872 7.57392C369.782 7.01067 369.342 6.68399 368.553 6.59387C368.034 6.54881 367.685 6.59387 367.504 6.72905C367.324 6.86423 367.2 7.067 367.132 7.33736C367.065 7.58519 367.02 7.86681 366.997 8.18223C366.975 8.47512 366.918 8.75674 366.828 9.0271Z" fill="white"/>
<path d="M415.497 2.30191C416.331 2.52721 416.827 3.05666 416.985 3.89027C417.143 4.72388 417.222 5.51243 417.222 6.25592C417.222 14.975 417.21 23.6265 417.188 32.2104C417.165 40.7943 417.176 49.4233 417.222 58.0974C417.222 61.0488 415.981 62.5245 413.501 62.5245H406.838C406.297 62.5245 405.824 62.4794 405.418 62.3893C405.035 62.2992 404.685 62.1302 404.37 61.8824C404.076 61.612 403.783 61.2516 403.49 60.801C403.197 60.3278 402.859 59.7083 402.475 58.9422C401.979 58.1987 401.235 56.7118 400.243 54.4813C399.251 52.2283 398.146 49.6486 396.929 46.7423C395.734 43.8359 394.471 40.8281 393.141 37.719C391.833 34.6099 390.604 31.8049 389.454 29.3041C389.409 30.0476 389.375 31.1515 389.353 32.616C389.33 34.0579 389.308 35.6913 389.285 37.5162C389.263 39.3412 389.24 41.2787 389.218 43.329C389.195 45.3792 389.173 47.3618 389.15 49.2769C389.127 51.1919 389.105 52.9831 389.082 54.6503C389.06 56.295 389.048 57.6468 389.048 58.7057C389.139 60.3278 388.868 61.398 388.237 61.9162C387.628 62.4118 386.58 62.6146 385.091 62.5245C383.378 62.4794 381.957 62.4231 380.83 62.3555C379.703 62.2879 378.789 62.0626 378.09 61.6796C377.414 61.2741 376.918 60.6207 376.602 59.7195C376.309 58.8183 376.163 57.4891 376.163 55.7317C376.072 47.5308 376.072 39.5552 376.163 31.8049C376.253 24.0546 376.275 16.0452 376.23 7.77669C376.23 7.21344 376.219 6.59387 376.196 5.91797C376.174 5.21954 376.23 4.56617 376.366 3.95786C376.501 3.32702 376.76 2.79757 377.143 2.3695C377.549 1.9189 378.169 1.6936 379.004 1.6936C381.078 1.6936 382.837 1.6936 384.28 1.6936C385.745 1.6936 386.974 1.81752 387.966 2.06535C388.958 2.31317 389.781 2.76377 390.435 3.41714C391.089 4.07051 391.641 5.01677 392.092 6.25592C392.701 7.9682 393.411 9.97336 394.223 12.2714C395.057 14.5469 395.914 16.9126 396.794 19.3684C397.673 21.8016 398.564 24.2348 399.465 26.6681C400.367 29.0788 401.179 31.2642 401.901 33.2243C402.622 35.1844 403.242 36.8178 403.761 38.1245C404.302 39.4313 404.64 40.2086 404.775 40.4564C404.73 37.7303 404.663 34.7789 404.572 31.6021C404.482 28.4029 404.381 25.1811 404.268 21.9368C404.178 18.6699 404.088 15.4932 403.997 12.4066C403.907 9.31999 403.84 6.50375 403.795 3.95786C403.795 3.41714 404.2 2.96654 405.012 2.60606C405.824 2.22306 406.816 1.96396 407.988 1.82878C409.161 1.6936 410.423 1.67107 411.776 1.76119C413.152 1.85131 414.392 2.03155 415.497 2.30191ZM379.477 55.0558C379.522 56.0246 379.601 56.8357 379.714 57.4891C379.849 58.1199 380.052 58.6493 380.323 59.0774C380.593 59.483 380.943 59.8547 381.371 60.1926C381.822 60.5081 382.442 60.846 383.231 61.2065C382.87 60.0124 382.397 58.9197 381.811 57.9284C381.225 56.9371 380.447 55.9795 379.477 55.0558ZM392.295 20.4498C393.13 22.9281 394.043 25.3388 395.035 27.6819C396.027 30.0025 397.402 32.1766 399.161 34.2043C398.191 31.8162 397.222 29.4505 396.252 27.1074C395.283 24.7418 394.291 22.3874 393.276 20.0443C393.096 20.1344 392.769 20.2696 392.295 20.4498ZM406.433 4.3972C407.041 5.2308 407.673 5.72646 408.327 5.88417C409.003 6.04188 409.679 6.07568 410.356 5.98556C411.055 5.89544 411.743 5.77152 412.419 5.61381C413.095 5.43357 413.727 5.4899 414.313 5.78279C413.163 4.814 411.934 4.26202 410.626 4.12684C409.319 3.96913 407.921 4.05925 406.433 4.3972Z" fill="white"/>
<path d="M446.172 50.4259C447.345 50.4259 448.134 50.6963 448.54 51.237C448.946 51.7552 449.171 52.6338 449.216 53.873C449.216 56.1711 449.126 57.9397 448.946 59.1788C448.765 60.3954 448.337 61.2628 447.661 61.781C447.007 62.2767 446.026 62.547 444.718 62.5921C443.433 62.6371 441.686 62.6597 439.476 62.6597C438.551 62.6146 437.379 62.6034 435.958 62.6259C434.561 62.6484 433.095 62.6597 431.562 62.6597C430.051 62.6597 428.585 62.6709 427.165 62.6935C425.767 62.716 424.606 62.7047 423.681 62.6597C422.847 62.6597 422.182 62.5696 421.686 62.3893C421.212 62.2091 420.829 61.9162 420.536 61.5107C420.265 61.0826 420.063 60.5193 419.927 59.8209C419.792 59.1225 419.657 58.2438 419.521 57.1849C419.476 57.0047 419.454 56.2048 419.454 54.7855C419.454 53.3435 419.454 51.5073 419.454 49.2769C419.454 47.0239 419.454 44.5005 419.454 41.7068C419.454 38.8906 419.465 35.9955 419.488 33.0215C419.51 30.025 419.521 27.0623 419.521 24.1334C419.521 21.2045 419.533 18.5347 419.555 16.124C419.578 13.6908 419.578 11.6406 419.555 9.97336C419.533 8.28362 419.521 7.15712 419.521 6.59387C419.521 6.05315 419.544 5.4899 419.589 4.90412C419.634 4.31834 419.736 3.80015 419.893 3.34955C420.051 2.87642 420.288 2.49341 420.604 2.20053C420.942 1.90764 421.359 1.76119 421.855 1.76119C423.569 1.76119 425.519 1.77246 427.706 1.79499C429.916 1.81752 432.159 1.82878 434.437 1.82878C436.736 1.82878 438.957 1.84005 441.099 1.86258C443.241 1.88511 445.124 1.89637 446.747 1.89637C448.168 1.89637 448.923 2.72998 449.013 4.3972C449.059 4.48732 449.081 4.6225 449.081 4.80274C449.036 7.4838 448.957 9.53403 448.844 10.9534C448.732 12.3503 448.45 13.3867 447.999 14.0625C447.57 14.7159 446.905 15.0877 446.003 15.1778C445.101 15.2679 443.85 15.3355 442.249 15.3806H438.495C436.872 15.4256 435.586 15.4707 434.639 15.5157C433.692 15.5608 432.982 15.7974 432.509 16.2254C432.058 16.631 431.787 17.3294 431.697 18.3207C431.607 19.312 431.607 20.799 431.697 22.7816C431.832 23.435 432.069 23.8743 432.407 24.0996C432.768 24.3024 433.208 24.4038 433.726 24.4038C434.696 24.4489 435.665 24.4714 436.635 24.4714C437.604 24.4714 438.551 24.4939 439.476 24.539C441.28 24.584 442.463 24.9558 443.027 25.6542C443.613 26.3301 443.884 27.5918 443.839 29.4392C443.839 30.3179 443.816 31.1966 443.771 32.0753C443.726 32.9539 443.557 33.7425 443.264 34.4409C442.993 35.1168 442.531 35.6688 441.877 36.0969C441.246 36.5024 440.321 36.6601 439.104 36.57C437.21 36.4799 435.767 36.4235 434.775 36.401C433.783 36.3785 433.084 36.5812 432.678 37.0093C432.272 37.4149 432.035 38.1358 431.968 39.1722C431.922 40.2086 431.934 41.7631 432.001 43.8359C432.046 44.8948 432.058 45.8298 432.035 46.6409C432.013 47.452 432.08 48.1391 432.238 48.7024C432.396 49.2431 432.678 49.6599 433.084 49.9528C433.512 50.2231 434.189 50.3583 435.113 50.3583C437.052 50.4034 438.923 50.4372 440.727 50.4597C442.554 50.4822 444.369 50.471 446.172 50.4259ZM442.452 9.0271C442.497 9.20734 442.486 9.42138 442.418 9.66921C442.351 9.89451 442.317 10.1085 442.317 10.3113C442.317 10.5141 442.384 10.6718 442.52 10.7844C442.655 10.8971 442.971 10.9534 443.467 10.9534C444.076 10.9534 444.56 10.8182 444.921 10.5479C445.304 10.2775 445.519 9.83818 445.564 9.22987C445.609 8.66662 445.586 8.11464 445.496 7.57392C445.406 7.01067 444.966 6.68399 444.177 6.59387C443.658 6.54881 443.309 6.59387 443.129 6.72905C442.948 6.86423 442.824 7.067 442.757 7.33736C442.689 7.58519 442.644 7.86681 442.621 8.18223C442.599 8.47512 442.542 8.75674 442.452 9.0271Z" fill="white"/>
<path d="M478.945 40.8619C479.351 41.6505 479.892 42.6643 480.569 43.9035C481.245 45.1426 481.955 46.517 482.699 48.0265C483.466 49.536 484.244 51.1018 485.033 52.724C485.822 54.3236 486.589 55.8782 487.333 57.3877C488.099 58.9648 488.246 60.1926 487.773 61.0713C487.322 61.95 485.946 62.4344 483.646 62.5245C482.451 62.6146 481.425 62.547 480.569 62.3217C479.712 62.0964 478.968 61.7697 478.336 61.3417C477.728 60.8911 477.209 60.3616 476.781 59.7533C476.375 59.145 476.014 58.5029 475.698 57.827C475.18 56.8582 474.639 55.8218 474.075 54.7179C473.534 53.5914 472.97 52.4761 472.384 51.3722C471.82 50.2682 471.279 49.198 470.76 48.1616C470.264 47.1253 469.802 46.1903 469.374 45.3567C469.103 44.7484 468.765 44.2076 468.359 43.7345C467.976 43.2388 467.457 42.946 466.803 42.8558C466.713 42.8108 466.657 42.7883 466.634 42.7883C466.612 42.7883 466.555 42.7657 466.465 42.7207H466.195C465 42.6305 464.244 42.8558 463.929 43.3966C463.635 43.9147 463.534 44.7258 463.624 45.8298C463.669 46.5282 463.703 47.5195 463.726 48.8038C463.748 50.0654 463.771 51.3947 463.793 52.7916C463.816 54.1659 463.838 55.4952 463.861 56.7794C463.883 58.0636 463.917 59.0549 463.962 59.7533C463.962 60.5419 463.895 61.1276 463.759 61.5107C463.624 61.8711 463.478 62.1302 463.32 62.2879C463.162 62.4456 462.982 62.5245 462.779 62.5245C462.598 62.5245 462.463 62.5245 462.373 62.5245H452.328C451.922 62.5245 451.663 62.2091 451.55 61.5782C451.437 60.9249 451.381 60.3391 451.381 59.8209C451.381 59.0324 451.381 57.6806 451.381 55.7655C451.381 53.8505 451.381 51.6087 451.381 49.0403C451.381 46.4494 451.381 43.6219 451.381 40.5578C451.381 37.4937 451.392 34.4184 451.415 31.3318C451.437 28.2226 451.449 25.2149 451.449 22.3085C451.449 19.4022 451.46 16.7774 451.482 14.4343C451.505 12.0686 451.516 10.1311 451.516 8.62156C451.516 7.08953 451.539 6.18833 451.584 5.91797C451.584 5.4899 451.584 5.10689 451.584 4.76894C451.584 4.43099 451.629 4.11557 451.719 3.82268C451.809 3.50726 451.967 3.2369 452.193 3.0116C452.441 2.76377 452.79 2.5948 453.241 2.50468C454.301 2.27938 455.62 2.08788 457.198 1.93017C458.799 1.77246 460.422 1.68234 462.068 1.65981C463.714 1.63728 465.281 1.65981 466.77 1.7274C468.28 1.79499 469.475 1.9189 470.355 2.09914C472.564 2.61733 474.594 3.28196 476.442 4.09304C478.291 4.88159 479.903 6.26718 481.279 8.24982C482.677 10.1874 483.748 12.4291 484.492 14.975C485.258 17.5209 485.597 20.1682 485.507 22.9168C485.416 25.643 484.796 28.3578 483.646 31.0614C482.496 33.765 480.67 36.2208 478.167 38.4287C477.942 38.9469 477.964 39.42 478.235 39.8481C478.528 40.2536 478.765 40.5916 478.945 40.8619ZM473.737 9.77059C473.286 8.71168 472.824 7.87808 472.35 7.26977C471.899 6.63893 471.381 6.19959 470.794 5.95176C470.231 5.6814 469.577 5.59128 468.833 5.6814C468.089 5.74899 467.187 5.96303 466.127 6.32351C467.367 6.88676 468.585 7.45001 469.78 8.01326C470.997 8.55397 472.316 9.13975 473.737 9.77059ZM474.007 29.0337C474.571 28.155 474.92 27.0736 475.056 25.7894C475.191 24.4827 475.191 23.1647 475.056 21.8354C474.92 20.4836 474.65 19.2106 474.244 18.0166C473.861 16.8225 473.376 15.8312 472.79 15.0426C472.136 14.209 471.313 13.4655 470.321 12.8121C469.329 12.1362 468.37 11.8433 467.446 11.9335C466.476 11.9785 465.732 12.125 465.214 12.3728C464.718 12.6206 464.357 13.0036 464.132 13.5218C463.929 14.04 463.816 14.6934 463.793 15.4819C463.771 16.248 463.737 17.1604 463.692 18.2193C463.692 18.7375 463.669 19.5373 463.624 20.6188C463.579 21.7002 463.534 22.8718 463.489 24.1334C463.444 25.3726 463.421 26.5554 463.421 27.6819C463.421 28.8084 463.421 29.6308 463.421 30.1489C463.421 30.6897 463.489 31.2191 463.624 31.7373C463.759 32.233 464.154 32.5033 464.808 32.5484C465.687 32.6385 466.555 32.6723 467.412 32.6498C468.269 32.6272 469.081 32.5033 469.847 32.278C470.636 32.0527 471.392 31.6922 472.113 31.1966C472.835 30.6784 473.466 29.9574 474.007 29.0337Z" fill="white"/>
<path d="M524.739 28.8985C525.844 28.8985 526.588 29.1689 526.971 29.7096C527.377 30.2278 527.603 30.9488 527.648 31.8725C527.648 33.382 527.67 35.1168 527.715 37.0769C527.76 39.037 527.806 41.0534 527.851 43.1262C527.896 45.1764 527.941 47.2041 527.986 49.2093C528.031 51.2145 528.076 53.0281 528.121 54.6503C528.189 56.2499 528.234 57.5904 528.256 58.6719C528.279 59.7533 528.313 60.4179 528.358 60.6658C528.268 61.5444 527.76 62.0852 526.836 62.2879C525.912 62.4907 524.773 62.6146 523.42 62.6597C521.864 62.7047 520.692 62.4794 519.903 61.9838C519.113 61.4656 518.764 60.3954 518.854 58.7733C518.11 59.2464 517.468 59.6519 516.926 59.9899C516.408 60.3053 515.9 60.5982 515.404 60.8685C512.112 62.5358 508.899 63.099 505.765 62.5583C502.631 62.0176 499.948 60.3729 497.716 57.6242C496.386 55.912 495.292 54.0758 494.435 52.1157C493.578 50.1555 492.891 48.1391 492.372 46.0664C491.876 43.9711 491.549 41.8533 491.391 39.7129C491.234 37.5726 491.222 35.466 491.358 33.3933C491.538 30.194 491.786 27.3552 492.102 24.8769C492.44 22.3761 492.902 20.078 493.488 17.9828C494.097 15.8875 494.886 13.9048 495.856 12.0349C496.825 10.1649 498.054 8.26109 499.542 6.32351C500.377 5.44484 501.346 4.71262 502.451 4.12684C503.556 3.51853 504.706 3.0454 505.901 2.70745C507.096 2.34697 508.325 2.09914 509.587 1.96396C510.872 1.82878 512.112 1.78372 513.307 1.82878C515.472 1.9189 517.321 2.31317 518.854 3.0116C520.387 3.6875 521.661 4.53238 522.676 5.54622C523.691 6.53754 524.491 7.63025 525.077 8.82433C525.686 10.0184 526.137 11.19 526.43 12.339C526.746 13.488 526.937 14.5469 527.005 15.5157C527.073 16.4845 527.107 17.228 527.107 17.7462C527.107 18.3545 527.073 18.929 527.005 19.4697C526.937 19.9879 526.78 20.4836 526.532 20.9567C526.306 21.4073 525.957 21.7791 525.483 22.072C525.032 22.3648 524.39 22.5563 523.555 22.6465C522.879 22.7366 522.18 22.8492 521.458 22.9844C520.737 23.0971 520.06 23.1083 519.429 23.0182C518.82 22.9056 518.279 22.6352 517.806 22.2071C517.355 21.7791 517.039 21.0243 516.859 19.9429C516.566 18.4334 515.991 17.2843 515.134 16.4958C514.3 15.7072 513.353 15.2454 512.293 15.1102C511.256 14.975 510.23 15.1327 509.215 15.5833C508.201 16.0114 507.378 16.6648 506.746 17.5434C506.363 18.0841 506.036 18.7713 505.765 19.6049C505.495 20.4385 505.269 21.3172 505.089 22.2409C504.931 23.1647 504.807 24.0771 504.717 24.9783C504.627 25.8795 504.582 26.6343 504.582 27.2426C504.446 31.2529 504.379 35.2858 504.379 39.3412C504.379 39.8819 504.39 40.5578 504.413 41.3689C504.435 42.1799 504.491 43.0136 504.582 43.8697C504.672 44.7258 504.818 45.5707 505.021 46.4043C505.247 47.2379 505.54 47.9476 505.901 48.5334C506.171 49.0516 506.532 49.5247 506.983 49.9528C507.456 50.3583 507.986 50.6963 508.573 50.9666C509.159 51.237 509.801 51.3947 510.5 51.4398C511.222 51.4848 512 51.3947 512.834 51.1694C513.713 50.899 514.401 50.4597 514.897 49.8514C515.416 49.2206 515.799 48.5221 516.047 47.7561C516.295 46.9901 516.464 46.2015 516.554 45.3905C516.667 44.5794 516.769 43.8584 516.859 43.2276C517.039 42.1687 516.78 41.4815 516.081 41.1661C515.382 40.8281 514.717 40.7943 514.085 41.0647C512.597 41.7181 511.56 41.7744 510.974 41.2337C510.41 40.6704 510.061 39.7805 509.925 38.5639C509.835 37.505 509.79 36.401 509.79 35.252C509.79 34.103 509.79 33.0215 509.79 32.0077C509.79 30.9037 510.128 30.1602 510.805 29.7772C511.504 29.3717 512.315 29.1464 513.24 29.1013C514.3 29.0562 515.292 29.0224 516.216 28.9999C517.141 28.9774 518.054 28.9661 518.956 28.9661C519.858 28.9661 520.782 28.9549 521.729 28.9323C522.676 28.9098 523.679 28.8985 524.739 28.8985ZM516.216 5.20828C516.126 5.16322 515.968 5.20828 515.743 5.34345C515.517 5.47863 515.382 5.60255 515.337 5.7152C515.247 6.63893 515.45 7.34862 515.946 7.84428C516.464 8.31741 517.129 8.73421 517.941 9.09469C517.896 8.12591 517.761 7.33736 517.535 6.72905C517.31 6.09821 516.87 5.59128 516.216 5.20828ZM496.972 33.2581C496.183 35.5561 495.766 37.9668 495.72 40.4902C495.675 42.991 495.923 45.3229 496.465 47.4857C497.028 49.6261 497.863 51.4848 498.967 53.0619C500.072 54.6165 501.369 55.6303 502.857 56.1035C501.098 54.5714 499.88 52.8929 499.204 51.068C498.55 49.2431 498.122 47.3393 497.919 45.3567C497.738 43.374 497.637 41.3689 497.614 39.3412C497.592 37.3135 497.378 35.2858 496.972 33.2581Z" fill="white"/>
<path d="M560.015 2.80883C561.548 3.52979 562.777 4.47605 563.701 5.64761C564.625 6.79664 565.381 8.06958 565.967 9.46644C566.576 10.8408 567.049 12.2939 567.388 13.826C567.748 15.3355 568.109 16.8225 568.47 18.2869C569.53 22.7704 570.048 27.2426 570.026 31.7035C570.003 36.1419 569.642 40.6028 568.943 45.0863C568.447 48.3532 567.478 51.237 566.035 53.7378C564.614 56.2161 562.844 58.2325 560.725 59.7871C558.605 61.3417 556.204 62.3443 553.521 62.7949C550.838 63.268 547.974 63.0877 544.93 62.2541C542.653 61.6458 540.567 60.4292 538.673 58.6043C536.802 56.7794 535.348 54.6052 534.31 52.0819C532.98 48.8375 531.977 45.5031 531.3 42.0786C530.646 38.6315 530.365 34.8126 530.455 30.6221C530.59 29.2252 530.703 27.7833 530.793 26.2963C530.883 24.7868 531.041 23.2548 531.267 21.7002C531.515 20.1231 531.819 18.546 532.18 16.9689C532.54 15.3693 533.07 13.7809 533.769 12.2038C534.874 9.52276 536.452 7.33736 538.504 5.64761C540.556 3.93533 542.811 2.69618 545.268 1.93017C547.726 1.16415 550.24 0.871257 552.811 1.0515C555.404 1.20921 557.805 1.79499 560.015 2.80883ZM558.29 18.0166C557.591 16.8225 556.79 15.6847 555.888 14.6033C554.986 13.5218 553.735 12.5192 552.134 11.5955C552.45 12.5192 552.867 13.2965 553.386 13.9274C553.927 14.5357 554.468 15.0651 555.009 15.5157C555.573 15.9438 556.148 16.3606 556.734 16.7661C557.32 17.1492 557.839 17.566 558.29 18.0166ZM549.293 7.64151C548.098 7.46127 546.892 7.54013 545.674 7.87808C544.479 8.21602 543.363 8.74548 542.326 9.46644C541.289 10.1874 540.41 11.0661 539.688 12.1024C538.966 13.1388 538.516 14.209 538.335 15.313C540.094 14.0738 541.864 12.8347 543.645 11.5955C545.426 10.3338 547.309 9.01584 549.293 7.64151ZM540.06 44.3766C540.579 47.0126 541.402 48.8601 542.529 49.919C543.656 50.9779 545.404 51.5299 547.771 51.5749C546.193 50.471 544.716 49.4008 543.341 48.3644C541.988 47.328 540.894 45.9988 540.06 44.3766ZM544.355 41.842C544.829 43.9147 545.618 45.5369 546.723 46.7085C547.828 47.88 549.214 48.4883 550.883 48.5334C551.762 48.5334 552.506 48.3419 553.115 47.9589C553.746 47.5533 554.276 47.0239 554.705 46.3705C555.156 45.6946 555.516 44.9286 555.787 44.0725C556.08 43.2163 556.317 42.3264 556.497 41.4027C556.768 40.2987 556.903 39.1384 556.903 37.9218C556.903 36.7052 556.948 35.4885 557.038 34.2719C557.083 32.1992 557.004 30.194 556.802 28.2564C556.599 26.3188 556.17 24.4038 555.516 22.5113C554.862 20.754 553.972 19.267 552.844 18.0504C551.717 16.8337 550.421 16.248 548.955 16.293C548.256 16.3381 547.636 16.5859 547.095 17.0365C546.576 17.4646 546.114 18.0166 545.708 18.6925C545.325 19.3458 544.998 20.0781 544.727 20.8891C544.479 21.7002 544.31 22.5226 544.22 23.3562C543.769 26.3977 543.521 29.473 543.476 32.5822C543.431 35.6913 543.724 38.7779 544.355 41.842ZM552.472 54.9882C554.051 54.9432 555.392 54.7517 556.497 54.4137C557.602 54.0532 558.538 53.5463 559.304 52.8929C560.071 52.217 560.691 51.3609 561.164 50.3245C561.661 49.2656 562.044 48.0039 562.314 46.5395C561.796 47.5533 561.187 48.4433 560.488 49.2093C559.812 49.9753 559.045 50.685 558.188 51.3384C557.331 51.9692 556.418 52.5888 555.449 53.1971C554.479 53.7829 553.487 54.3799 552.472 54.9882Z" fill="white"/>
<path d="M614.061 4.32961C614.016 5.00551 614.038 5.79405 614.128 6.69525C614.219 7.59645 614.264 8.49765 614.264 9.39885C614.264 10.3 614.162 11.1562 613.959 11.9673C613.756 12.7783 613.328 13.3867 612.674 13.7922C611.659 14.4906 610.397 14.8962 608.886 15.0088C607.398 15.1215 606.102 15.1102 604.997 14.975C604.162 14.8849 603.497 15.0201 603.001 15.3806C602.528 15.7185 602.156 16.2029 601.885 16.8337C601.615 17.442 601.434 18.1405 601.344 18.929C601.276 19.7176 601.243 20.4949 601.243 21.2609C601.288 24.4151 601.31 27.389 601.31 30.1827C601.31 32.9539 601.31 35.7026 601.31 38.4287C601.31 41.1548 601.31 43.9147 601.31 46.7085C601.31 49.5022 601.344 52.4649 601.412 55.5965C601.412 57.0385 601.209 58.2776 600.803 59.314C600.42 60.3504 599.597 61.1389 598.334 61.6796C596.913 62.2879 595.459 62.6034 593.971 62.6259C592.505 62.6484 591.029 62.4118 589.54 61.9162C589.18 61.7585 588.92 61.5332 588.763 61.2403C588.605 60.9474 588.503 60.6207 588.458 60.2602C588.413 59.8772 588.402 59.4942 588.424 59.1112C588.447 58.7057 588.458 58.3227 588.458 57.9622C588.458 52.9831 588.458 47.8462 588.458 42.5517C588.458 37.2346 588.436 32.0978 588.391 27.1412C588.391 26.5104 588.368 25.9471 588.323 25.4514C588.3 24.9333 588.255 24.4601 588.188 24.0321C588.12 23.5815 588.052 23.1083 587.985 22.6127C587.917 22.0945 587.861 21.5087 587.816 20.8553C587.68 19.4359 587.545 18.3207 587.41 17.5096C587.274 16.6986 587.015 16.124 586.632 15.7861C586.271 15.4256 585.696 15.2228 584.907 15.1778C584.118 15.1327 583.036 15.1327 581.66 15.1778C581.277 15.1778 580.927 15.189 580.612 15.2116C580.296 15.2341 579.947 15.2454 579.563 15.2454C578.098 15.3355 576.835 15.0539 575.775 14.4005C574.716 13.7246 573.915 12.8347 573.374 11.7307C572.855 10.6267 572.596 9.36505 572.596 7.94567C572.596 6.50375 572.912 5.0393 573.543 3.55232C573.926 2.71871 574.411 2.21179 574.997 2.03155C575.606 1.85131 576.26 1.76119 576.959 1.76119C582.641 1.71613 588.267 1.68234 593.836 1.65981C599.427 1.63728 605.042 1.60348 610.679 1.55842C611.603 1.55842 612.404 1.7274 613.08 2.06535C613.779 2.40329 614.106 3.15805 614.061 4.32961ZM576.722 6.32351C578.436 6.97688 579.947 7.17965 581.254 6.93182C582.585 6.66146 583.847 6.25592 585.042 5.7152C584.411 5.67014 583.768 5.59128 583.114 5.47863C582.461 5.34345 581.795 5.2646 581.119 5.24207C580.465 5.21954 579.766 5.2984 579.022 5.47863C578.278 5.63634 577.511 5.91797 576.722 6.32351ZM596.812 51.8115C597.286 50.0992 597.488 48.3982 597.421 46.7085C597.353 45.0187 597.06 43.329 596.541 41.6392C596.361 42.4954 596.181 43.3515 596 44.2076C595.82 45.0638 595.718 45.9199 595.696 46.7761C595.673 47.6322 595.741 48.4771 595.899 49.3107C596.057 50.1443 596.361 50.9779 596.812 51.8115Z" fill="white"/>
<path d="M624.173 12.9811C625.504 13.0712 626.541 13.4317 627.285 14.0625C628.029 14.6709 628.322 15.7185 628.164 17.2055C628.029 18.6249 627.454 19.9879 626.439 21.2947C625.425 22.5789 624.354 23.6265 623.226 24.4376C622.099 25.2261 621.107 25.7218 620.25 25.9246C619.393 26.1048 619.1 25.8007 619.371 25.0121C619.934 23.4801 620.182 22.117 620.115 20.9229C620.047 19.7288 620.013 18.4897 620.013 17.2055C620.149 15.8537 620.498 14.7948 621.062 14.0288C621.648 13.2402 622.685 12.891 624.173 12.9811ZM622.584 14.9074C621.93 15.5608 621.592 16.2254 621.569 16.9013C621.547 17.5547 621.716 18.2982 622.076 19.1318C622.73 18.3883 623.181 17.7237 623.429 17.1379C623.677 16.5296 623.711 15.8762 623.531 15.1778C623.486 15.0877 623.339 14.9975 623.091 14.9074C622.843 14.8173 622.674 14.8173 622.584 14.9074Z" fill="white"/>
<path d="M661.884 6.72905C663.643 14.9074 665.525 23.39 667.532 32.1766C669.539 40.9633 671.489 49.4459 673.383 57.6242C673.518 58.1199 673.642 58.6268 673.755 59.145C673.89 59.6407 673.913 60.1251 673.823 60.5982C673.755 61.0488 673.541 61.4543 673.18 61.8148C672.819 62.1528 672.177 62.3893 671.252 62.5245C670.463 62.6146 669.561 62.6709 668.547 62.6935C667.532 62.716 666.54 62.6371 665.57 62.4569C664.601 62.2767 663.733 61.95 662.966 61.4769C662.2 60.9812 661.704 60.2715 661.478 59.3478C661.298 58.5592 661.162 57.9847 661.072 57.6242C660.982 57.2412 660.881 56.6554 660.768 55.8669C660.542 53.8392 659.866 52.3297 658.739 51.3384C657.611 50.3471 655.864 49.8063 653.496 49.7162C651.85 49.6712 650.486 49.8063 649.404 50.1218C648.344 50.4146 647.499 50.8765 646.867 51.5073C646.259 52.1157 645.819 52.8704 645.548 53.7716C645.278 54.6728 645.064 55.6979 644.906 56.8469C644.68 58.4691 644.387 59.6745 644.026 60.463C643.688 61.229 643.237 61.7697 642.674 62.0852C642.132 62.3781 641.467 62.5245 640.678 62.5245C639.911 62.5245 639.021 62.547 638.006 62.5921C637.082 62.6371 636.259 62.5921 635.537 62.4569C634.816 62.3217 634.229 62.0626 633.779 61.6796C633.35 61.2741 633.057 60.7672 632.899 60.1589C632.741 59.528 632.753 58.7507 632.933 57.827C633.316 55.7542 633.835 53.1858 634.489 50.1218C635.165 47.0351 635.909 43.7683 636.721 40.3212C637.533 36.8516 638.356 33.3595 639.19 29.8448C640.047 26.3076 640.847 23.0295 641.591 20.0105C642.335 16.9689 642.978 14.3554 643.519 12.17C644.083 9.98463 644.455 8.52018 644.635 7.77669C645.018 6.28971 645.289 5.14069 645.447 4.32961C645.605 3.496 645.887 2.88769 646.292 2.50468C646.721 2.09914 647.386 1.87384 648.288 1.82878C649.19 1.78372 650.588 1.78372 652.482 1.82878C652.707 1.82878 653.012 1.82878 653.395 1.82878C653.801 1.82878 654.218 1.82878 654.646 1.82878C655.097 1.82878 655.503 1.84005 655.864 1.86258C656.225 1.88511 656.506 1.89637 656.709 1.89637C657.769 1.94143 658.592 2.02029 659.178 2.13294C659.787 2.24559 660.249 2.48215 660.565 2.84263C660.903 3.18058 661.151 3.66497 661.309 4.29581C661.467 4.90412 661.658 5.7152 661.884 6.72905ZM647.07 30.4869C646.935 27.5355 647.51 24.4827 648.795 21.3285C649.629 19.0755 650.024 16.9802 649.979 15.0426C649.054 17.7687 648.231 20.4498 647.51 23.0858C646.811 25.6993 646.247 28.324 645.819 30.96C645.819 31.1403 645.83 31.3092 645.853 31.4669C645.875 31.6021 646.078 31.6134 646.461 31.5007C646.867 31.3656 647.082 31.2079 647.104 31.0276C647.127 30.8474 647.115 30.6671 647.07 30.4869ZM653.023 41.5378C653.496 41.5378 653.981 41.5266 654.477 41.504C654.996 41.4815 655.447 41.3801 655.83 41.1999C656.213 41.0196 656.495 40.738 656.675 40.355C656.878 39.9495 656.89 39.3975 656.709 38.6991C656.416 37.5951 656.157 36.232 655.931 34.6099C655.706 32.9652 655.458 31.3881 655.187 29.8786C654.939 28.3465 654.657 27.0398 654.342 25.9584C654.026 24.8769 653.632 24.3362 653.158 24.3362C652.797 24.3362 652.437 24.8769 652.076 25.9584C651.738 27.0398 651.411 28.3465 651.095 29.8786C650.802 31.3881 650.52 32.9765 650.249 34.6437C649.979 36.2884 649.708 37.6965 649.438 38.868C649.235 39.6341 649.246 40.2198 649.472 40.6254C649.72 41.0084 650.047 41.2787 650.452 41.4365C650.881 41.5716 651.32 41.628 651.771 41.6054C652.245 41.5604 652.662 41.5378 653.023 41.5378ZM668.276 50.9666C668.321 51.8453 668.366 52.7127 668.411 53.5688C668.457 54.425 668.569 55.2699 668.75 56.1035C668.93 56.9145 669.201 57.7144 669.561 58.5029C669.945 59.2915 670.463 60.0349 671.117 60.7334C671.162 58.976 670.925 57.2863 670.407 55.6641C669.911 54.0194 669.201 52.4536 668.276 50.9666Z" fill="white"/>
<path d="M730.879 6.18833C730.834 14.9074 730.823 23.5589 730.845 32.1428C730.868 40.7268 730.879 49.3557 730.879 58.0298C730.879 58.8183 730.8 59.6294 730.642 60.463C730.507 61.2741 730.079 61.8035 729.357 62.0514C728.388 62.3217 727.204 62.4907 725.806 62.5583C724.431 62.6259 723.112 62.5921 721.849 62.4569C720.609 62.3217 719.538 62.0852 718.636 61.7472C717.734 61.3867 717.283 60.9361 717.283 60.3954C717.373 55.2586 717.52 50.0767 717.723 44.8497C717.948 39.6003 718.106 34.2607 718.196 28.8309C718.061 29.0562 717.757 29.7096 717.283 30.791C716.832 31.8725 716.28 33.1905 715.626 34.7451C714.994 36.2771 714.295 37.9556 713.529 39.7805C712.762 41.6054 712.029 43.3966 711.331 45.1539C710.632 46.9112 709.978 48.5221 709.369 49.9866C708.783 51.4285 708.354 52.5663 708.084 53.3999C708.039 53.535 707.937 53.7491 707.779 54.042C707.621 54.3349 707.351 54.6277 706.968 54.9206C706.607 55.191 706.122 55.4276 705.513 55.6303C704.927 55.8331 704.194 55.9345 703.315 55.9345C702.39 55.8894 701.556 55.6754 700.812 55.2924C700.068 54.9094 699.493 54.2785 699.087 53.3999C698.659 52.6564 698.118 51.4623 697.464 49.8176C696.833 48.1729 696.111 46.2579 695.299 44.0725C694.488 41.8871 693.62 39.5214 692.695 36.9755C691.771 34.4071 690.801 31.8725 689.786 29.3717C689.741 30.1151 689.708 31.2191 689.685 32.6836C689.662 34.1255 689.64 35.7702 689.617 37.6176C689.595 39.4651 689.583 41.4139 689.583 43.4641C689.583 45.5144 689.572 47.497 689.55 49.4121C689.527 51.3271 689.505 53.1182 689.482 54.7855C689.459 56.4301 689.448 57.7819 689.448 58.8409C689.538 60.4179 689.302 61.4656 688.738 61.9838C688.197 62.4794 687.261 62.7047 685.931 62.6597C684.398 62.6146 683.056 62.5583 681.906 62.4907C680.756 62.4231 679.775 62.1978 678.964 61.8148C678.152 61.4093 677.521 60.7559 677.07 59.8547C676.641 58.9535 676.427 57.6242 676.427 55.8669C676.337 47.666 676.326 39.6904 676.393 31.9401C676.461 24.1898 676.472 16.1804 676.427 7.91187C676.427 7.37115 676.416 6.75158 676.393 6.05315C676.371 5.35472 676.427 4.70135 676.562 4.09304C676.698 3.4622 676.934 2.93275 677.273 2.50468C677.633 2.05408 678.186 1.82878 678.93 1.82878C680.779 1.82878 682.425 1.82878 683.868 1.82878C685.333 1.82878 686.607 1.9527 687.69 2.20053C688.772 2.44835 689.674 2.88769 690.395 3.51853C691.139 4.14937 691.726 5.08436 692.154 6.32351C692.605 7.81049 693.157 9.52276 693.811 11.4603C694.465 13.3979 695.153 15.4143 695.874 17.5096C696.618 19.6049 697.362 21.7227 698.106 23.8631C698.85 26.0034 699.561 28.0424 700.237 29.98C700.936 31.9175 701.567 33.6636 702.131 35.2182C702.717 36.7728 703.202 38.0119 703.585 38.9356C704.284 37.1783 705.04 35.1844 705.852 32.9539C706.686 30.7009 707.52 28.4254 708.354 26.1273C709.188 23.8068 710.023 21.5087 710.857 19.2332C711.691 16.9577 712.447 14.8736 713.123 12.9811C713.822 11.0886 714.431 9.4777 714.949 8.14844C715.491 6.79664 715.908 5.88417 716.201 5.41104C716.516 4.69009 716.798 4.09304 717.046 3.61991C717.294 3.12425 717.554 2.75251 717.824 2.50468C718.117 2.23432 718.422 2.05408 718.737 1.96396C719.076 1.87384 719.493 1.82878 719.989 1.82878H727.531C728.658 1.82878 729.492 2.21179 730.034 2.97781C730.597 3.7213 730.879 4.79147 730.879 6.18833ZM681.399 56.9145C682.098 56.8244 682.425 56.6104 682.38 56.2724C682.334 55.912 682.267 55.5515 682.177 55.191C680.801 49.4684 680.621 43.7232 681.635 37.9556C682.402 33.9903 682.301 30.0476 681.331 26.1273C680.79 31.1065 680.384 36.0293 680.114 40.8957C679.866 45.7622 679.866 50.685 680.114 55.6641C680.159 56.0021 680.226 56.3175 680.316 56.6104C680.407 56.9033 680.767 57.0047 681.399 56.9145Z" fill="white"/>
<path d="M747.79 8.31741C747.79 9.66921 747.79 11.6293 747.79 14.1977C747.79 16.7436 747.79 19.6049 747.79 22.7816C747.79 25.9358 747.778 29.2477 747.756 32.7174C747.733 36.1644 747.722 39.4876 747.722 42.6869C747.722 45.8636 747.733 48.7362 747.756 51.3046C747.778 53.8505 747.812 55.8106 747.857 57.1849C747.902 58.9422 747.406 60.3053 746.369 61.2741C745.332 62.2429 743.449 62.7949 740.721 62.93C739.256 63.0202 738.083 62.9413 737.204 62.6935C736.324 62.4456 735.637 62.0852 735.141 61.612C734.667 61.1164 734.34 60.5306 734.16 59.8547C734.002 59.1788 733.923 58.4578 733.923 57.6918C733.878 55.0558 733.81 51.9467 733.72 48.3644C733.63 44.7822 733.551 41.076 733.483 37.2459C733.416 33.4158 733.359 29.6082 733.314 25.8232C733.269 22.0156 733.224 18.5798 733.179 15.5157C733.134 12.4291 733.1 9.86071 733.078 7.81049C733.055 5.76026 733.066 4.55491 733.111 4.19443C733.156 3.63118 733.348 3.19184 733.686 2.87642C734.047 2.53847 734.475 2.30191 734.971 2.16673C735.49 2.03155 736.043 1.9527 736.629 1.93017C737.238 1.90764 737.846 1.87384 738.455 1.82878C739.312 1.78372 740.191 1.73866 741.093 1.6936C741.995 1.64854 742.852 1.68234 743.664 1.79499C744.475 1.90764 745.197 2.15547 745.828 2.53847C746.482 2.89895 746.978 3.496 747.316 4.32961C747.542 4.96045 747.677 5.62508 747.722 6.32351C747.767 7.02194 747.79 7.68657 747.79 8.31741ZM740.112 31.0276C740.248 28.8197 740.394 26.623 740.552 24.4376C740.71 22.2297 740.789 20.033 740.789 17.8476C740.789 15.6622 740.653 13.4768 740.383 11.2914C740.112 9.08343 739.628 6.89802 738.929 4.73515C738.613 6.94308 738.511 9.15102 738.624 11.359C738.737 13.5444 738.906 15.7298 739.132 17.9152C739.357 20.1006 739.582 22.286 739.808 24.4714C740.056 26.6343 740.157 28.8197 740.112 31.0276Z" fill="white"/>
<path d="M778.466 40.8619C778.871 41.6505 779.413 42.6643 780.089 43.9035C780.765 45.1426 781.476 46.517 782.22 48.0265C782.986 49.536 783.764 51.1018 784.553 52.724C785.343 54.3236 786.109 55.8782 786.853 57.3877C787.62 58.9648 787.766 60.1926 787.293 61.0713C786.842 61.95 785.467 62.4344 783.167 62.5245C781.972 62.6146 780.946 62.547 780.089 62.3217C779.232 62.0964 778.488 61.7697 777.857 61.3417C777.248 60.8911 776.729 60.3616 776.301 59.7533C775.895 59.145 775.534 58.5029 775.219 57.827C774.7 56.8582 774.159 55.8218 773.595 54.7179C773.054 53.5914 772.49 52.4761 771.904 51.3722C771.341 50.2682 770.799 49.198 770.281 48.1616C769.785 47.1253 769.323 46.1903 768.894 45.3567C768.624 44.7484 768.285 44.2076 767.88 43.7345C767.496 43.2388 766.978 42.946 766.324 42.8558C766.234 42.8108 766.177 42.7883 766.155 42.7883C766.132 42.7883 766.076 42.7657 765.986 42.7207H765.715C764.52 42.6305 763.765 42.8558 763.449 43.3966C763.156 43.9147 763.054 44.7258 763.145 45.8298C763.19 46.5282 763.223 47.5195 763.246 48.8038C763.269 50.0654 763.291 51.3947 763.314 52.7916C763.336 54.1659 763.359 55.4952 763.381 56.7794C763.404 58.0636 763.438 59.0549 763.483 59.7533C763.483 60.5419 763.415 61.1276 763.28 61.5107C763.145 61.8711 762.998 62.1302 762.84 62.2879C762.682 62.4456 762.502 62.5245 762.299 62.5245C762.119 62.5245 761.983 62.5245 761.893 62.5245H751.848C751.442 62.5245 751.183 62.2091 751.07 61.5782C750.958 60.9249 750.901 60.3391 750.901 59.8209C750.901 59.0324 750.901 57.6806 750.901 55.7655C750.901 53.8505 750.901 51.6087 750.901 49.0403C750.901 46.4494 750.901 43.6219 750.901 40.5578C750.901 37.4937 750.913 34.4184 750.935 31.3318C750.958 28.2226 750.969 25.2149 750.969 22.3085C750.969 19.4022 750.98 16.7774 751.003 14.4343C751.025 12.0686 751.037 10.1311 751.037 8.62156C751.037 7.08953 751.059 6.18833 751.104 5.91797C751.104 5.4899 751.104 5.10689 751.104 4.76894C751.104 4.43099 751.149 4.11557 751.24 3.82268C751.33 3.50726 751.488 3.2369 751.713 3.0116C751.961 2.76377 752.31 2.5948 752.761 2.50468C753.821 2.27938 755.14 2.08788 756.719 1.93017C758.319 1.77246 759.943 1.68234 761.589 1.65981C763.235 1.63728 764.802 1.65981 766.29 1.7274C767.801 1.79499 768.996 1.9189 769.875 2.09914C772.085 2.61733 774.114 3.28196 775.963 4.09304C777.812 4.88159 779.424 6.26718 780.799 8.24982C782.197 10.1874 783.268 12.4291 784.012 14.975C784.779 17.5209 785.117 20.1682 785.027 22.9168C784.937 25.643 784.317 28.3578 783.167 31.0614C782.017 33.765 780.19 36.2208 777.688 38.4287C777.462 38.9469 777.485 39.42 777.755 39.8481C778.048 40.2536 778.285 40.5916 778.466 40.8619ZM773.257 9.77059C772.806 8.71168 772.344 7.87808 771.87 7.26977C771.419 6.63893 770.901 6.19959 770.315 5.95176C769.751 5.6814 769.097 5.59128 768.353 5.6814C767.609 5.74899 766.707 5.96303 765.647 6.32351C766.887 6.88676 768.105 7.45001 769.3 8.01326C770.518 8.55397 771.837 9.13975 773.257 9.77059ZM773.528 29.0337C774.091 28.155 774.441 27.0736 774.576 25.7894C774.711 24.4827 774.711 23.1647 774.576 21.8354C774.441 20.4836 774.17 19.2106 773.764 18.0166C773.381 16.8225 772.896 15.8312 772.31 15.0426C771.656 14.209 770.833 13.4655 769.841 12.8121C768.849 12.1362 767.891 11.8433 766.966 11.9335C765.997 11.9785 765.253 12.125 764.734 12.3728C764.238 12.6206 763.877 13.0036 763.652 13.5218C763.449 14.04 763.336 14.6934 763.314 15.4819C763.291 16.248 763.257 17.1604 763.212 18.2193C763.212 18.7375 763.19 19.5373 763.145 20.6188C763.099 21.7002 763.054 22.8718 763.009 24.1334C762.964 25.3726 762.942 26.5554 762.942 27.6819C762.942 28.8084 762.942 29.6308 762.942 30.1489C762.942 30.6897 763.009 31.2191 763.145 31.7373C763.28 32.233 763.674 32.5033 764.328 32.5484C765.208 32.6385 766.076 32.6723 766.932 32.6498C767.789 32.6272 768.601 32.5033 769.368 32.278C770.157 32.0527 770.912 31.6922 771.634 31.1966C772.355 30.6784 772.987 29.9574 773.528 29.0337Z" fill="white"/>
<path d="M797.879 12.9811C796.391 12.891 795.365 13.2289 794.801 13.995C794.215 14.7835 793.854 15.8537 793.719 17.2055C793.719 18.4897 793.753 19.7288 793.82 20.9229C793.888 22.117 793.64 23.4801 793.076 25.0121C792.806 25.8007 793.099 26.0935 793.956 25.8908C794.812 25.7105 795.805 25.2149 796.932 24.4038C798.059 23.6153 799.13 22.5676 800.145 21.2609C801.16 19.9767 801.734 18.6249 801.87 17.2055C802.028 15.7185 801.734 14.6596 800.99 14.0288C800.246 13.4204 799.209 13.0712 797.879 12.9811ZM796.289 14.9074C796.38 14.8173 796.549 14.8173 796.797 14.9074C797.045 14.9975 797.191 15.0877 797.236 15.1778C797.417 15.8762 797.383 16.5183 797.135 17.1041C796.887 17.7124 796.436 18.3883 795.782 19.1318C795.421 18.2982 795.252 17.5434 795.275 16.8675C795.297 16.2142 795.635 15.5608 796.289 14.9074ZM810.968 12.9811C809.48 12.891 808.454 13.2289 807.89 13.995C807.304 14.7835 806.943 15.8537 806.808 17.2055C806.808 18.4897 806.841 19.7288 806.909 20.9229C806.977 22.117 806.729 23.4801 806.165 25.0121C805.895 25.8007 806.188 26.0935 807.044 25.8908C807.901 25.7105 808.893 25.2149 810.021 24.4038C811.148 23.6153 812.219 22.5676 813.234 21.2609C814.248 19.9767 814.823 18.6249 814.959 17.2055C815.116 15.7185 814.823 14.6596 814.079 14.0288C813.335 13.4204 812.298 13.0712 810.968 12.9811ZM809.378 14.9074C809.468 14.8173 809.637 14.8173 809.885 14.9074C810.133 14.9975 810.28 15.0877 810.325 15.1778C810.505 15.8762 810.472 16.5183 810.224 17.1041C809.976 17.7124 809.525 18.3883 808.871 19.1318C808.51 18.2982 808.341 17.5434 808.363 16.8675C808.386 16.2142 808.724 15.5608 809.378 14.9074Z" fill="white"/>
</g>
<defs>
<filter id="filter0_d_2_4024" x="0" y="0" width="820" height="75" filterUnits="userSpaceOnUse" color-interpolation-filters="sRGB">
<feFlood flood-opacity="0" result="BackgroundImageFix"/>
<feColorMatrix in="SourceAlpha" type="matrix" values="0 0 0 0 0 0 0 0 0 0 0 0 0 0 0 0 0 0 127 0" result="hardAlpha"/>
<feOffset dy="4"/>
<feGaussianBlur stdDeviation="2.5"/>
<feComposite in2="hardAlpha" operator="out"/>
<feColorMatrix type="matrix" values="0 0 0 0 0.7 0 0 0 0 0.580525 0 0 0 0 0.239167 0 0 0 0.3 0"/>
<feBlend mode="normal" in2="BackgroundImageFix" result="effect1_dropShadow_2_4024"/>
<feBlend mode="normal" in="SourceGraphic" in2="effect1_dropShadow_2_4024" result="shape"/>
</filter>
</defs>
</svg>
