<svg width="1009" height="652" viewBox="0 0 1009 652" fill="none" xmlns="http://www.w3.org/2000/svg">
<g clip-path="url(#clip0_38_2009)">
<path d="M533.402 482.099L530.702 484.199L524.902 489.999L524.202 490.599L523.502 490.899L522.902 490.799L522.202 490.899L521.802 491.099L521.402 491.399L517.002 496.199L516.502 496.999L516.102 497.599L516.002 497.999V498.399L516.102 498.799L516.202 499.099L516.502 499.799L516.902 500.399L518.702 502.699L518.902 502.999L519.102 503.299V503.799L519.002 504.399L518.702 504.699L518.402 504.899L508.702 508.399L505.602 509.499L497.602 512.799L494.902 514.599L489.602 520.499L488.702 521.399L486.902 519.099L485.502 518.299L483.802 518.499L479.302 520.699L477.802 521.099L476.102 520.699L474.302 519.799L465.002 513.099L456.902 507.299L450.402 502.699L446.902 498.999L440.702 490.299L437.002 486.699L428.902 480.999L409.702 467.299L400.302 460.499L392.402 454.799L385.602 449.999L382.202 446.599L381.602 446.199L377.402 440.899L376.802 438.899L375.802 434.599L375.602 432.899L375.802 431.299L376.302 429.899L376.602 428.499L376.402 426.899L374.602 422.999L374.402 421.399V419.399L374.102 417.899L373.702 416.499L372.202 413.499L371.802 412.099L371.602 408.899L371.102 408.199L366.302 405.399L363.502 404.599L362.202 403.599L362.002 403.099L374.102 387.999L377.102 381.499L376.402 378.899L374.502 375.999L365.002 365.299L378.102 358.999V357.899L361.602 334.899L382.202 327.099L387.102 327.199L388.902 331.499L390.402 333.999L400.102 345.599L408.002 359.499L409.402 360.299L414.502 361.399L422.102 364.399L431.102 369.499L448.602 380.299L449.902 382.599L452.002 384.699L451.902 386.199L458.902 383.799L463.002 377.599L466.502 370.399L467.502 368.899L468.602 367.899L469.802 367.499L470.902 367.799L472.002 368.799L473.202 370.599L473.502 373.199L473.602 378.199L474.402 379.899L476.902 380.799L492.602 382.699L493.902 381.399L495.702 374.599L496.802 373.999L498.802 373.199L506.502 372.899L509.002 372.399L510.902 371.599L512.702 368.899L513.402 368.999L513.902 370.799L515.202 378.599L515.702 380.599L516.502 382.899L518.502 384.499L520.502 385.699L526.302 387.099L543.902 388.299L546.702 387.499L545.302 392.299L545.002 394.199L544.902 396.199V398.099L545.002 399.699L545.302 400.599L545.202 401.499L544.402 401.399L541.402 400.799L540.802 400.699L540.302 400.899L539.802 401.299L539.202 402.299L539.102 403.199L537.502 408.099L536.202 409.599L535.202 410.599L533.902 414.799L533.202 416.099L526.402 415.999L525.102 415.599L523.802 414.699L522.702 413.699L521.502 413.399H520.202L518.202 413.699L517.202 414.299L516.702 414.899L516.502 415.599L516.402 416.399V416.999L516.702 418.499L518.202 419.999L517.202 422.799L516.702 423.299L516.402 423.399V423.599L516.502 423.899L517.102 424.999L518.802 426.699L519.702 427.899L520.002 428.399L519.902 428.599L518.202 428.799L517.802 428.899L517.402 429.199L517.002 429.499L516.402 429.599L515.602 430.299L512.802 435.899L512.002 436.999L511.002 437.999L509.902 438.799L506.402 440.399L505.902 441.399L505.502 441.899L505.302 442.199L503.402 444.599L502.402 446.699L501.602 448.599L502.502 450.499L506.702 456.399L508.402 457.499L511.102 458.999L511.202 459.399L511.502 460.099L511.702 460.699L512.502 461.199H513.602L516.102 460.099L517.002 460.199L517.502 461.099L524.502 464.399L525.502 466.099L526.002 467.799V469.099L526.202 470.699L526.702 472.299L527.802 472.899L529.202 473.399L530.102 473.899L531.102 474.999L532.002 476.199L532.302 476.699L532.602 477.499L533.202 479.499L533.302 479.999L533.402 482.099Z" fill="#BBBBBB" stroke="white" stroke-width="2" stroke-linecap="round" stroke-linejoin="round"/>
<path d="M364.999 365.3L374.499 376L376.399 378.9L377.099 381.5L374.099 388L361.999 403.1L361.899 403L361.399 401.2L361.099 400.5L358.899 397.6L358.099 396L356.899 391.3L356.199 390.2L354.299 388.1L353.699 387.1L353.199 385.5L352.599 382L350.699 375.5L350.099 374L350.499 373.4L350.199 372.3L350.099 366.9L349.899 365.3L349.399 364L345.099 356.8L343.999 355.6L330.999 346L325.999 343.8L320.299 342.3L318.199 342L316.899 342.7L316.099 344.3L315.499 347L314.099 347.8L312.999 350.3L311.299 352.1L309.299 353.1L307.099 353.2L304.799 352.2L298.799 347.9H297.699L294.299 348.5L293.999 347.8L293.799 347.1L293.599 346.9L292.499 348.8L292.099 349.2L291.699 349.6L288.899 346.7L284.899 345.7L273.199 346.4L266.099 348.8H262.599L260.599 348.3L258.999 347.1L255.799 343.9L252.299 341.3L246.699 338.4L240.299 335.1L238.699 333.5L238.299 331.7L238.999 325.4L239.499 324.1L240.199 323L241.199 322.1L243.599 320.9L244.399 320L243.899 318.5L239.999 313L238.299 309.6L237.699 306.8L239.199 304.7L240.799 303.6L242.599 303.4L244.799 304.1L246.799 305.4L247.999 305.9L248.899 305.8L249.499 304.8L249.399 303.7L248.899 302.6L248.199 301.7L247.399 301L244.599 299.3L243.699 298.4L243.099 297.4L243.799 296.7L244.399 294.9L244.299 294.1L243.699 292.7L243.499 292.4L243.399 292L243.599 291.7L243.999 291.4L244.899 291.2L246.499 291.1L247.699 290.6L250.699 288.5L251.799 287.5L252.099 287.3L253.099 287.2L254.299 288.1L254.899 288.5L257.799 289.2L260.699 289.5L261.499 290.2L261.699 291.8V295.3L262.199 296.6L263.699 299L264.399 301L265.999 303.9L266.799 305L267.799 305.7L269.099 306H271.799L272.799 306.6L273.399 307.9L274.399 310.9L275.899 313.6L277.799 315.7L291.499 328.2L292.999 328.5L293.799 328.8L294.399 329.3L296.499 331.6L298.299 333.3L299.599 333.8L302.999 334.4L304.099 335.1L307.199 338.5L307.899 339.6L308.599 341.9L309.499 342.3L309.899 342.6L311.199 343.1L312.699 343L313.699 342.2L315.999 337.7L316.999 336.6L317.899 335.9L318.899 335.4L320.099 335.1H323.199L334.299 337.8L337.099 339L339.799 340.6L343.199 343.2L353.099 354.2L359.999 365.3L360.299 365.5L361.099 366L361.899 366.3L364.999 365.3Z" fill="url(#paint0_linear_38_2009)" stroke="white" stroke-width="2" stroke-linecap="round" stroke-linejoin="round"/>
<path d="M352.701 170.4L359.001 181.1L361.901 183.8L377.601 188.1L378.501 188.6V189.4L378.101 190.4L362.301 220.3L347.401 249L344.201 256.5L342.901 272.8V273.7L343.101 274.5L349.701 286.7L350.901 289.2L350.601 289.6L349.901 290.3L337.401 297.4L336.201 298.5V299.5L336.701 300.6L361.601 334.9L378.101 357.9V359L365.001 365.3L361.901 366.3L361.101 366L360.301 365.5L360.001 365.3L353.101 354.2L343.201 343.2L339.801 340.6L337.101 339L334.301 337.8L323.201 335.1H320.101L318.901 335.4L317.901 335.9L317.001 336.6L316.001 337.7L313.701 342.2L312.701 343L311.201 343.1L309.901 342.6L309.501 342.3L308.601 341.9L307.901 339.6L307.201 338.5L304.101 335.1L303.001 334.4L299.601 333.8L298.301 333.3L296.501 331.6L294.401 329.3L293.801 328.8L293.001 328.5L291.501 328.2L277.801 315.7L275.901 313.6L274.401 310.9L273.401 307.9L272.801 306.6L271.801 306H269.101L267.801 305.7L266.801 305L266.001 303.9L264.401 301L263.701 299L262.201 296.6L261.701 295.3V291.8L261.501 290.2L260.701 289.5L257.801 289.2L254.901 288.5L254.301 288.1L253.101 287.2L252.101 287.3L251.801 287.5L250.701 288.5L247.701 290.6L246.501 291.1L244.901 291.2L244.001 291.4L243.601 291.7L243.401 292L243.501 292.4L243.701 292.7L244.301 294.1L244.401 294.9L243.801 296.7L243.101 297.4L241.701 295.4L240.001 293.9L233.9 291.6L230.9 291.7L230.1 291.3L229.4 290.2L229.5 289.2L230.2 288.4L231.2 288.1H231.3L234.701 286.8L234.501 283.7L233.4 279.8L233.9 276.2L234.9 275.5L236.101 275L237.001 274.3L237.201 273L236.501 272L235.201 271.2L232.601 270.2L230.5 268.3L228.9 265.8L227.1 263.8L224.5 263.5L221.9 263.8L216.8 263.3L204.5 265.2L201.5 265.1L200.1 264.6L197.8 262.1L196.4 261.6L193.4 261.3L191.8 260.3L191 258.9L190.3 252.9L189.8 251.4L188.9 250.1L185.2 246.2L183.8 245.3L182.4 245.5L180.7 246.3L179 246.8L177.3 246.9L174.7 246.4L170.6 244.6L166.7 240.9L154.2 226.2L152.8 225.3L151.7 227.1L150.9 233.8L149.7 236.1L147.3 236.9L144.3 236.7L141.3 236L135.1 233.4H133.6L132.6 233.7L129.5 235.6L127.3 236.6L126.2 237.4L125.7 238.5L126 240.1L127.1 241L134.4 244.5L136.4 246.1L138.2 248.8L139.8 252.5L144.1 259.5L146.4 262.3L147.1 262.9L147.4 263.6L147.1 264.3L146.4 264.7L142.7 265.3L141.7 265L141.1 264V262.8L141.4 261.4L141.6 260L141 257.2L139.5 255.2L137.5 253.7L131.8 251L130.5 250.7L129.4 250.9L127.3 251.8L126.4 251.9L125.4 251.4L124.1 249.4L123.3 248.6L122.2 248.2L120.9 248.1L119.6 248.4L118.5 248.9L117.9 249.6L117.4 250.6L115.9 252.3L114.3 253L113.3 253.8L113.7 255.9L114.9 258.6L115 259.8L114.5 261.7L112.1 267.1L111.3 268L109.1 268.8L108.6 269.8L109 271L109.8 271.9L109.9 272.6L108.7 273.5L107.5 273.8L103.6 273.6L102.5 273.9L99.2002 275.5L97.9002 275.7L97.5002 272.4L97.0002 270.4L96.2002 268.8L95.1002 267.5L93.7002 266.4L90.6002 264.7L88.1002 264.4L87.5002 264.2L86.9002 263.7L86.1002 263.1L84.9002 261.2L84.2002 260.6L83.2002 260.4L81.7002 260.5L78.4002 261.6L75.9002 263L74.4002 264.4L73.8002 265L72.0002 268.8L64.7001 291.7L64.5001 292.9V293.3L59.3001 295.8L57.6001 298.1V301.1L58.9001 307.2L58.7001 310.2L58.3001 312.7L58.2001 315.1L59.3001 317.9L60.6001 320L61.2001 322.1L61.4001 324.3V327L61.7001 329.2L62.4001 331.3L63.6001 333.3L64.8001 334.7L65.7001 335.3L66.5001 335.7L69.5001 336.4L69.9001 336.8L69.8001 337.3L69.1001 338.1L67.9001 339L65.2001 340.3L64.0001 341.7L62.2001 344.9L61.1001 345.6L54.0001 344.1L48.5001 343L35.5001 342.2L21.4 341.5L10.6 340.9L1.2 340.4L1.1 304.7V286.8V268.8V250.8V232.7V214.5V196.2V177.9V159.5L1 141.1V122.6V103.9V85.2998V66.4998V47.5998L1.2 47.4998L6.60001 45.6998L12 43.9998L17.5 42.1998L28.4001 38.6998L33.8001 36.8998L39.3001 35.1998L44.7001 33.3998L55.6001 29.8998L61.1001 28.1998L66.5001 26.3998L72.0002 24.6998L77.4002 22.8998L88.3002 19.3998L95.6002 17.0998L102.8 14.8998L110.1 12.6998L117.4 10.3998L120.7 9.39976L124.1 8.39976L130.8 6.39976L134.3 5.39976L141.3 3.39976L144.8 2.39976L149.5 0.999756L150.9 1.09976L152.5 1.79976L153 2.19976L152.9 2.29976L152 4.69976L151.8 6.19976L151.5 7.09976L150.7 8.79976L150.5 9.79976V12.0998L150.3 12.6998L150.1 12.8998L149.6 13.1998L149.4 13.3998L149.2 13.6998L148.7 15.1998L146.6 18.0998L146.3 18.5998L146.2 18.7998L145.6 19.3998L142.9 23.1998L142.6 23.7998L142.5 24.3998L142.3 26.4998L141.6 28.6998L140.8 30.3998L140.5 31.6998L140.2 34.2998L139.9 35.5998L139.4 36.8998L138.8 38.0998L138.4 38.5998L137.6 39.3998L137.2 39.8998L137 40.4998L136.9 41.0998L136.7 42.2998L136.5 43.4998L132.6 52.9998L132.1 56.6998L131.9 59.0998L132 61.4998L133.2 64.9998L134.4 68.0998L136 70.6998L137 74.2998L136.9 76.1998L136.5 77.4998L136 78.6998L134.8 79.4998L133.4 81.4998L133.1 82.8998L132.7 83.6998L132.4 84.2998L132.3 84.9998L132.7 87.9998L133.7 91.2998L135.2 92.6998L136.3 93.8998L138.6 94.2999L141.4 94.0998L144.3 92.4998L147.3 89.9998L149.9 87.5998L151.6 85.3998L152.5 83.9998L153.2 82.6998L154.4 81.2998L155.8 79.2998L157.1 77.0998L158.1 75.5998L159.1 74.1998L159.4 73.1998L158.6 71.6998L157.4 71.1998L156 70.5998L156.8 72.4998L155.8 72.7998L154.4 72.3998L153.8 71.3998L154.4 68.2998L155.1 66.8998L155.5 65.8998L156.7 65.4998L157.5 65.0998L158.7 65.4998L159 67.0998L159.3 68.0998L160.1 68.8998L161.3 69.1998L163.2 68.6998L164.2 67.4998L163.9 65.8998L162.6 64.6998L161.9 63.4998L162.5 61.3998L162.6 58.7998L161.9 56.0998L161.4 53.6998V51.9998L162.6 51.6998L164.2 51.3998L165 49.5998L165.3 47.5998L165.8 46.0998L166.2 43.6998L164.9 42.8998L163.6 43.8998L162.6 45.8998L160.4 47.1998L159 47.3998L157.5 48.5998L155.8 47.3998L155.7 45.4998L156.4 43.4998L157.4 41.1998L158.3 39.1998L160.1 37.1998L161 35.4998L162.6 33.8998L164.3 32.1998L165.6 31.5998L162.9 29.5998L161.4 27.6998L160.1 22.5998L159.6 19.2998L159.4 17.0998L159.6 14.5998L160.4 11.6998L161.3 9.29976L161.8 8.09976L167.5 11.9998L174.9 16.9998L180 20.3998L193.7 29.7998L202.6 35.6998L202.4 36.0998L201 37.9998L200.2 39.5998L199.1 43.2998L198.2 45.6998L196.5 48.5998L195.2 50.1998L194.6 53.0998L193.9 55.8998L193 57.9998L192 59.7998L190 62.4998L189.1 64.4998L188.4 66.4998L188 68.4998L188.7 72.5998L190.2 76.0998L192 78.4998L196.8 83.9998L204 91.1998L207.8 94.8998L210.8 97.0998L213.8 99.4998L214.5 100.2L214.7 101.3L214.4 103.6L213.2 105.4L210.5 107.2L209.6 109.6L208.6 112L207.3 114.4L208.2 116.6L211.1 117.1L213.7 116.9L216 116.2L217.5 114.8L219.6 114.6L221.9 115L224.1 114.2L226.5 112.6L229.8 110.4L231.3 108.4L231.6 107.4L230.8 106.5L229.7 106.4L228.7 106L228.1 105.4L227.9 104.7V103.8L228.2 103.2L228.6 102.2L229.3 101.6L229.8 101H230.8L232.301 101.1L233.9 101.4L235.001 101.1L235.9 100.2L236.301 99.0998L237.101 96.3998L237.501 93.7999L237.201 91.1998L236.501 86.8998L235.501 83.5998L234.201 80.8998L233.801 78.2998L233.701 76.0998L234.701 74.6998L235.701 73.8998L236.801 72.5998L237.601 70.7998L238.101 68.4998V65.4998L238.201 61.5998V59.5998L239.301 60.3998L250.601 67.8998L261.201 75.0998L271.001 81.4998L279.401 87.1998L291.501 95.1998L295.101 97.5998L296.601 99.2999L297.601 101.5L298.001 103.4L298.401 107.6L299.001 109.5L302.401 115L309.001 122.3L312.201 125.7L315.401 129.2L319.501 133.9L322.801 137.7L329.501 145.5L332.801 149.3L336.101 153.1L339.401 156.9L345.901 164.4L350.301 169.4L352.601 170.4H352.701Z" fill="#BBBBBB" stroke="white" stroke-width="2" stroke-linecap="round" stroke-linejoin="round"/>
<path d="M627.602 353.399V353.699L620.502 356.599L620.002 357.799L619.302 358.699L620.202 369.499L620.302 369.899L620.502 370.199L620.802 370.899L621.302 371.499L621.702 371.699L622.502 372.199L627.702 373.599L628.002 373.899L628.202 374.199L628.402 374.499V375.099V375.799L628.202 377.199V378.499L628.302 378.899L628.802 380.199L630.102 382.499L628.502 386.599L619.602 403.899L618.502 402.799L617.802 401.899L617.602 401.599L617.502 401.299L617.402 400.999V400.599L617.802 399.399V398.699L617.702 398.399L617.602 398.099L615.602 395.799L613.902 394.299L613.302 393.999L612.802 393.899L612.202 394.099L608.002 396.999L606.702 397.599L605.502 397.799L604.602 397.599L603.502 397.199L602.502 396.599L601.302 395.699L600.402 395.299L599.602 395.199L598.802 395.399L598.102 395.999L597.402 396.699L596.902 397.599L596.402 398.599L595.702 400.699L595.502 401.899V403.099L596.002 404.499L596.402 405.099L596.702 405.699L596.602 406.299L596.202 407.199L595.802 407.599L594.602 408.099L594.302 408.599V409.199L595.002 410.999L595.202 413.699L594.802 415.399L594.002 417.099L593.902 417.599L594.002 418.099L594.302 418.499L595.102 419.299V419.999L594.802 420.499L593.302 422.599L592.802 423.599L592.502 424.599L592.002 426.299L590.502 429.899L590.402 430.399L590.502 430.899L590.802 430.999H591.202L592.302 430.799H592.802L593.302 430.899L593.802 431.099L594.102 431.599L594.302 431.999V432.599L594.002 433.299L593.402 433.899L589.702 437.399L589.002 437.799L576.502 440.399L574.002 439.899L571.502 438.299L570.302 438.699L569.202 438.099L568.102 437.299L565.702 436.399L564.802 435.399L563.302 433.299L562.702 433.199L562.502 433.099L561.402 432.899L556.102 430.499H555.202L554.802 430.699L554.502 430.999L554.202 431.799L554.002 432.299L553.902 432.599L554.002 433.599L553.802 435.099V435.499L553.702 435.899L553.502 436.099L553.402 436.499L551.902 438.699L551.802 439.199L552.002 439.499H552.402L552.802 439.599L553.102 439.799L553.402 440.099L553.502 440.499L553.402 440.899L553.202 441.499L552.302 443.499L552.102 443.999L551.102 447.899L550.702 448.799L550.202 449.099L549.502 449.399H547.802L546.202 449.199L544.502 448.399L542.502 447.299L542.102 447.199L541.702 447.399L541.402 447.899L541.302 448.399L541.102 449.699L540.602 450.099L540.102 450.499L536.602 451.399L533.802 451.799L533.202 451.899L532.902 452.099L532.602 452.399L532.502 452.799L532.902 453.699L534.702 455.699L535.802 456.699L536.302 457.199L536.802 457.899L538.502 464.299L538.602 464.899L538.502 465.999L538.402 466.699L538.202 467.299L536.502 471.199V471.599L537.202 473.899L540.302 480.099L539.202 480.799L533.402 482.099L533.302 479.999L533.202 479.499L532.602 477.499L532.302 476.699L532.002 476.199L531.102 474.999L530.102 473.899L529.202 473.399L527.802 472.899L526.702 472.299L526.202 470.699L526.002 469.099V467.799L525.502 466.099L524.502 464.399L517.502 461.099L517.002 460.199L516.102 460.099L513.602 461.199H512.502L511.702 460.699L511.502 460.099L511.202 459.399L511.102 458.999L508.402 457.499L506.702 456.399L502.502 450.499L501.602 448.599L502.402 446.699L503.402 444.599L505.302 442.199L505.502 441.899L505.902 441.399L506.402 440.399L509.902 438.799L511.002 437.999L512.002 436.999L512.802 435.899L515.602 430.299L516.402 429.599L517.002 429.499L517.402 429.199L517.802 428.899L518.202 428.799L519.902 428.599L520.002 428.399L519.702 427.899L518.802 426.699L517.102 424.999L516.502 423.899L516.402 423.599V423.399L516.702 423.299L517.202 422.799L518.202 419.999L516.702 418.499L516.402 416.999V416.399L516.502 415.599L516.702 414.899L517.202 414.299L518.202 413.699L520.202 413.399H521.502L522.702 413.699L523.802 414.699L525.102 415.599L526.402 415.999L533.202 416.099L533.902 414.799L535.202 410.599L536.202 409.599L537.502 408.099L539.102 403.199L539.202 402.299L539.802 401.299L540.302 400.899L540.802 400.699L541.402 400.799L544.402 401.399L545.202 401.499L545.302 400.599L545.002 399.699L544.902 398.099V396.199L545.002 394.199L545.302 392.299L546.702 387.499L543.902 388.299L526.302 387.099L520.502 385.699L518.502 384.499L516.502 382.899L515.702 380.599L515.202 378.599L513.902 370.799L513.402 368.999L512.702 368.899L510.902 371.599L509.002 372.399L506.502 372.899L498.802 373.199L496.802 373.999L495.702 374.599L493.902 381.399L492.602 382.699L476.902 380.799L474.402 379.899L473.602 378.199L473.502 373.199L473.202 370.599L472.002 368.799L470.902 367.799L469.802 367.499L468.602 367.899L467.502 368.899L466.502 370.399L463.002 377.599L458.902 383.799L451.902 386.199L452.002 384.699L449.902 382.599L448.602 380.299L431.101 369.499L422.101 364.399L414.501 361.399L409.401 360.299L408.001 359.499L400.101 345.599L390.401 333.999L388.901 331.499L387.101 327.199L382.201 327.099L361.601 334.899L336.701 300.6L336.201 299.5V298.5L337.401 297.4L349.901 290.3L350.601 289.6L350.901 289.2L349.701 286.7L343.101 274.5L342.901 273.7V272.8L344.201 256.5L347.401 249L362.301 220.3L378.101 190.4L378.501 189.4V188.6L377.601 188.1L361.901 183.8L359.001 181.1L352.701 170.4L357.501 169.5L361.601 168.8L369.001 167.4L375.601 166.2L378.901 165.6L384.201 164.7L389.501 163.8L416.001 159.5L421.301 158.6L430.201 159.5L439.001 160.3L447.901 161.1L456.702 161.9L464.802 162.6L472.802 163.3L480.902 164.1L488.902 164.8L492.102 165.1L494.102 164.5L500.002 161.3L505.602 158.2L511.402 154.9L517.002 151.8L518.102 151.4L519.102 151L521.002 151.3L521.902 152.2L522.902 153L529.202 161.2L535.402 169.4L538.302 172.5L541.202 175.5L547.202 179.3L553.202 183L555.502 185.1L560.402 195.3L563.602 201.8L567.902 210.8L571.702 218.5L572.702 218.6L581.102 214.1L589.402 209.5L588.202 229.2L586.902 248.8L586.602 253L586.102 254.4L584.702 254.9L584.402 256L584.102 271.3L583.902 286.5L584.102 287.4L584.602 287.8H591.602H597.902L604.302 287.9H611.302L611.702 287.8L612.202 287.9H612.602L612.902 288.1L613.902 298L614.902 307.799L616.702 317.399L618.602 326.999L621.102 338.499L623.602 349.799L624.902 351.399L626.202 352.999L627.602 353.399Z" fill="#BBBBBB" stroke="white" stroke-width="2" stroke-linecap="round" stroke-linejoin="round"/>
<path d="M619.6 403.9L620.1 404.3L627.4 404.6L629.8 405.3L630.7 405.5L631.7 405.7L633 405.6L634.5 405.3L634.9 405.2L635.2 405.5L635.5 405.9L635.9 406.9L636.2 407.6L636.3 408.4L636.2 409.4L635.9 410.5L635.4 411.7L635.3 412.1L635.2 412.6V413.1L635.3 416.7L635.4 418L636.2 422L636.4 422.3L636.6 422.7L637 423.1L638.2 423.6L638.5 423.9L638.7 424.2V424.8L638.5 425.2V425.8L638.7 426.4L640.3 428.3L640.2 430.1L640 430.8L639.8 431L639.5 431.3L638.4 431.6L638.1 431.8L638 432.2L637.9 432.6L638.2 436L638.4 436.4L638.6 436.7L639.3 436.9H639.8L640.3 436.8L640.6 436.7L641.7 436.2L642 436.1H642.4H642.8L643.2 436.4L643.5 436.9L643.6 437.9L643.4 438.4V439.1L643.5 439.5L645.5 441.7L646.3 441.4H646.6L646.8 441.3L647.5 442.4L652.1 443.7L652.8 443.8L653.7 443.7L654.1 443.6H654.5L655.5 444.2L655.9 444.4L656.4 444.5L657 444.3L658.3 444.4L668.4 446.3L669.4 447.9L670.9 455L670.7 455.6L669.8 455.8H669.4L667.8 456.2L666.6 456.6L664.7 457.6L663.8 458.3L663.4 458.7L663.3 459.1L663.1 459.6V460.7V461.4L663.2 461.9L663.3 462.3L663.4 463V463.5V464.4L663.3 464.8L663 465.2L662.5 465.4L662 465.5H660.2L659.5 465.7L659.1 466.4L658.9 467L658.8 472.2L659.4 473.5L660.2 474.5L662.6 476.6L667 480.5L666.5 481.2L665.8 484.1L665.4 487.1L665.3 489.9L664.6 492.4L664.2 494.9L663.8 495.1L663.2 494.9L662.6 495.1L662.5 495.2L648.6 491.7L645.5 491.5V491.9L645.6 492.7V493V493.4L645.4 493.8L645.2 494.1L644.9 494.4L644.6 494.5L643.9 494.7L637.5 494.9L636.7 494.8L636.3 494.6L635.9 494.4L635.5 494.1L635.3 493.7L635.2 493.1L635.3 491.9L635.7 489.9L635.5 488.8L634.3 486.6L633.1 486.4L628.1 485.4L623.6 484.7H622.8L621.8 485L620.9 485.5L620.4 485.9L620 486.3L618.1 489.2L617.6 489.7L613.2 491.5H612.8L612 491.3L611.1 490.8L607.6 488.1L606.2 487.1L605.1 487.2L596.7 489.1L596.4 489.2L590.8 491.9L589.6 492.7L588.7 493H586.6L582.7 492L582.4 491.7L582.1 491.2L582 490.4L581.9 489.8V489.3L582 488.1V487L581.8 486.5L581.6 486.1L580.2 485L578.4 483.8L575.4 480.8L574.8 480L574.4 479.4L574.3 479L573.7 476.5L573.6 476.2L573.4 475.9L573.1 475.6L572.8 475.4L572.4 475.3L571.9 475.2H570.1L569.4 475.3L568.9 475.6L568.8 476V476.4V477.5V477.9L568.7 478.3L568.5 478.6L568.3 478.9L567 479.8L565.8 480.5L565.1 480.7L540.3 480.1L537.2 473.9L536.5 471.6V471.2L538.2 467.3L538.4 466.7L538.5 466L538.6 464.9L538.5 464.3L536.8 457.9L536.3 457.2L535.8 456.7L534.7 455.7L532.9 453.7L532.5 452.8L532.6 452.4L532.9 452.1L533.2 451.9L533.8 451.8L536.6 451.4L540.1 450.5L540.6 450.1L541.1 449.7L541.3 448.4L541.4 447.9L541.7 447.4L542.1 447.2L542.5 447.3L544.5 448.4L546.2 449.2L547.8 449.4H549.5L550.2 449.1L550.7 448.8L551.1 447.9L552.1 444L552.3 443.5L553.2 441.5L553.4 440.9L553.5 440.5L553.4 440.1L553.1 439.8L552.8 439.6L552.4 439.5H552L551.8 439.2L551.9 438.7L553.4 436.5L553.5 436.1L553.7 435.9L553.8 435.5V435.1L554 433.6L553.9 432.6L554 432.3L554.2 431.8L554.5 431L554.8 430.7L555.2 430.5H556.1L561.4 432.9L562.5 433.1L562.7 433.2L563.3 433.3L564.8 435.4L565.7 436.4L568.1 437.3L569.2 438.1L570.3 438.7L571.5 438.3L574 439.9L576.5 440.4L589 437.8L589.7 437.4L593.4 433.9L594 433.3L594.3 432.6V432L594.1 431.6L593.8 431.1L593.3 430.9L592.8 430.8H592.3L591.2 431H590.8L590.5 430.9L590.4 430.4L590.5 429.9L592 426.3L592.5 424.6L592.8 423.6L593.3 422.6L594.8 420.5L595.1 420V419.3L594.3 418.5L594 418.1L593.9 417.6L594 417.1L594.8 415.4L595.2 413.7L595 411L594.3 409.2V408.6L594.6 408.1L595.8 407.6L596.2 407.2L596.6 406.3L596.7 405.7L596.4 405.1L596 404.5L595.5 403.1V401.9L595.7 400.7L596.4 398.6L596.9 397.6L597.4 396.7L598.1 396L598.8 395.4L599.6 395.2L600.4 395.3L601.3 395.7L602.5 396.6L603.5 397.2L604.6 397.6L605.5 397.8L606.7 397.6L608 397L612.2 394.1L612.8 393.9L613.3 394L613.9 394.3L615.6 395.8L617.6 398.1L617.7 398.4L617.8 398.7V399.4L617.4 400.6V401L617.5 401.3L617.6 401.6L617.8 401.9L618.5 402.8L619.6 403.9Z" fill="#BBBBBB" stroke="white" stroke-width="2" stroke-linecap="round" stroke-linejoin="round"/>
<path d="M662.501 495.2L662.101 495.6L661.801 495.9L661.701 496.4L661.601 497.5L662.001 500.5L663.601 502L670.701 504.5L675.401 504.7L677.701 505.6L677.901 505.9L678.401 506.8L678.701 507.1L679.101 507.2L680.101 507L680.501 507.1L681.001 508L681.101 509L680.401 514.8L680.701 516.7H680.801L679.901 517.4L678.901 517.8L674.701 518L673.901 518.2L673.301 518.5L672.901 518.7L672.601 519L672.101 519.4L671.801 520L671.601 520.5V521.1L672.101 522.9L672.401 525.6L673.801 528.1L673.901 528.4L674.001 528.8V529.3L673.901 529.7L673.801 530.2V530.6L673.701 531V531.4L673.801 531.8V532.2L674.001 532.5L674.101 533.3L674.201 533.7V534.1L674.001 534.7L673.701 535.3L673.101 536.2L672.801 536.8L672.701 537.4V538.7L672.601 539L672.401 539.3L672.001 539.2L671.701 539L670.601 537.9L670.401 537.7L670.101 537.5L669.701 537.3L668.801 537.1L667.901 537H667.101L666.301 537.2L665.501 537.6L665.001 538L664.601 538.4L664.301 538.7L660.801 545.5L660.201 546.3L659.201 547.4L658.601 547.8L657.701 548.3L655.401 548.9L655.001 549.9L654.301 551L653.301 552.1L651.101 553.9L650.801 554.4L650.401 555.4L650.101 556.6L649.501 560.4L649.001 562.2L648.901 562.6L648.101 563.4L641.701 568.6L638.401 570.4L637.701 570.6L635.601 571L635.101 571.3L634.601 572L633.701 573.5L633.101 575L632.801 575.8L632.501 576.7L632.101 577.6L631.701 578.4L624.601 585L624.101 585.7L623.801 586.9L623.501 589.8L623.201 590.8L622.301 592.6L620.501 593.7L619.801 591.7L617.901 590.3L615.801 589.2L613.501 588.6H609.101L607.301 588.1L601.401 585.3L598.701 581.9L597.001 580.2L595.101 579.4L591.301 578.3L587.701 575.4L586.101 574.5L582.201 573.9L576.401 571.1L574.401 570.9L572.801 571.6L570.001 573.8L568.501 574.7L564.501 575L560.601 573.7L551.001 567.2L545.201 563.3L537.401 558L531.901 552.9L524.101 545.9L520.201 543.4L511.701 540.4L504.201 536.1L492.001 525.7L488.701 521.4L489.601 520.5L494.901 514.6L497.601 512.8L505.601 509.5L508.701 508.4L518.401 504.9L518.701 504.7L519.001 504.4L519.101 503.8V503.3L518.901 503L518.701 502.7L516.901 500.4L516.501 499.8L516.201 499.1L516.101 498.8L516.001 498.4V498L516.101 497.6L516.501 497L517.001 496.2L521.401 491.4L521.801 491.1L522.201 490.9L522.901 490.8L523.501 490.9L524.201 490.6L524.901 490L530.701 484.2L533.401 482.1L539.201 480.8L540.301 480.1L565.101 480.7L565.801 480.5L567.001 479.8L568.301 478.9L568.501 478.6L568.701 478.3L568.801 477.9V477.5V476.4V476L568.901 475.6L569.401 475.3L570.101 475.2H571.901L572.401 475.3L572.801 475.4L573.101 475.6L573.401 475.9L573.601 476.2L573.701 476.5L574.301 479L574.401 479.4L574.801 480L575.401 480.8L578.401 483.8L580.201 485L581.601 486.1L581.801 486.5L582.001 487V488.1L581.901 489.3V489.8L582.001 490.4L582.101 491.2L582.401 491.7L582.701 492L586.601 493H588.701L589.601 492.7L590.801 491.9L596.401 489.2L596.701 489.1L605.101 487.2L606.201 487.1L607.601 488.1L611.101 490.8L612.001 491.3L612.801 491.5H613.201L617.601 489.7L618.101 489.2L620.001 486.3L620.401 485.9L620.901 485.5L621.801 485L622.801 484.7H623.601L628.101 485.4L633.101 486.4L634.301 486.6L635.501 488.8L635.701 489.9L635.301 491.9L635.201 493.1L635.301 493.7L635.501 494.1L635.901 494.4L636.301 494.6L636.701 494.8L637.501 494.9L643.901 494.7L644.601 494.5L644.901 494.4L645.201 494.1L645.401 493.8L645.601 493.4V493V492.7L645.501 491.9V491.5L648.601 491.7L662.501 495.2Z" fill="url(#paint1_linear_38_2009)" stroke="white" stroke-width="2" stroke-linecap="round" stroke-linejoin="round"/>
<path d="M620.499 593.7L622.299 592.6L623.199 590.8L623.499 589.8L623.799 586.9L624.099 585.7L624.599 585L631.699 578.4L632.099 577.6L632.499 576.7L632.799 575.8L633.099 575L633.699 573.5L634.599 572L635.099 571.3L635.599 571L637.699 570.6L638.399 570.4L641.699 568.6L648.099 563.4L648.899 562.6L648.999 562.2L649.499 560.4L650.099 556.6L650.399 555.4L650.799 554.4L651.099 553.9L653.299 552.1L654.299 551L654.999 549.9L655.399 548.9L657.699 548.3L658.599 547.8L659.199 547.4L660.199 546.3L660.799 545.5L664.299 538.7L664.599 538.4L664.999 538L665.499 537.6L666.299 537.2L667.099 537H667.899L668.799 537.1L669.699 537.3L670.099 537.5L670.399 537.7L670.599 537.9L671.699 539L671.999 539.2L672.399 539.3L672.599 539L672.699 538.7V537.4L672.799 536.8L673.099 536.2L673.699 535.3L673.999 534.7L674.199 534.1V533.7L674.099 533.3L673.999 532.5L673.799 532.2V531.8L673.699 531.4V531L673.799 530.6V530.2L673.899 529.7L673.999 529.3V528.8L673.899 528.4L673.799 528.1L672.399 525.6L672.099 522.9L671.599 521.1V520.5L671.799 520L672.099 519.4L672.599 519L672.899 518.7L673.299 518.5L673.899 518.2L674.699 518L678.899 517.8L679.899 517.4L680.799 516.7L681.799 517.7L689.199 519L690.799 518.9L695.199 517.4L695.999 517L696.799 516.8H697.699L698.599 517.2L699.099 517.4L699.999 518.3L700.899 518.5L701.899 518.1L702.899 517.4L703.299 517.3H703.799H704.299L704.799 517.4L705.699 518.5L707.599 522.9L709.299 525.4L709.899 526.9L709.799 528.5L709.299 529.8L708.599 530.8L707.699 531.6L706.699 532.1L705.299 532.4H704.299L703.699 532.8L703.499 534.4L703.599 535.2L703.999 535.8L704.199 536.5V537.4L703.899 537.8L702.399 538.9L701.999 540L702.099 541.3L702.899 544.1L702.999 545.6L702.799 549.9L702.999 551.5L703.399 552.5L704.799 554.7L705.199 555.8L705.299 558.2L705.499 559.2L705.999 560.3L708.299 562.5L710.499 566.4L711.499 567.5L714.499 569.2L719.099 573.3L720.499 575.5L720.699 578.4L719.799 582.7L718.399 586.8L716.099 590.3L715.399 591.7L714.899 592.9L714.699 594.1L714.199 595L713.299 595.7L712.399 595.9L709.699 596.3L707.899 596.9L706.899 598L704.399 605.5L702.699 608.9L698.499 614.8L695.299 617.8L692.299 621.6L689.899 625.9L688.199 630.4L687.999 633.5L689.199 639.3L689.399 642.4L689.099 644.999L688.399 647.499L687.299 649.699L686.999 650.699L686.799 649.4L686.099 648.4L685.099 647.799L683.899 647.499L681.799 647.599L680.999 647.499L680.399 647.099L679.099 646.2L678.499 645.999L677.799 646.099L676.699 646.4L676.099 646.499L675.699 646.799L675.399 647.499L674.899 648.2L674.299 648.499L673.299 647.599L672.199 644.599L670.899 643.9L669.699 644.299L668.599 645.099L666.699 646.999L665.599 647.9L664.399 648.499L663.099 648.799L661.699 648.999L660.199 649.299L657.999 650.699L656.699 650.999L655.399 650.499L654.799 649.4L654.299 647.999L653.799 646.7L652.599 645.7L649.999 644.7L648.799 643.9L648.299 642.799L647.299 639.599L646.599 639L645.399 638.6L643.099 637L641.999 636.4H639.199L633.899 637.6L626.299 638L625.699 638.2L624.499 639.2L623.899 639.4H622.299L621.599 639.2L617.799 637.6L616.399 637.4L614.899 637.6L613.799 637.9L612.299 636.8L612.399 635.5L613.299 634.2L614.399 633.1L615.299 631.6L615.099 630.4L614.199 629.4L612.999 628.4L612.199 626.4L612.499 623.7L613.699 618.8L613.899 615.9L613.499 610.1L613.699 607.2L615.699 603.6L618.999 599.4L621.099 595.2L620.499 593.7Z" fill="#BBBBBB" stroke="white" stroke-width="2" stroke-linecap="round" stroke-linejoin="round"/>
<path d="M945.499 406.699L945.399 406.299L944.899 404.499L944.798 403.499L944.999 402.099L945.199 400.699V399.799V399.299L945.098 398.899L944.298 398.199L941.298 397.299L940.598 397.199L940.199 396.899L939.098 395.199L938.298 394.599L937.698 395.099L937.098 395.899L936.098 395.999L932.598 395.299L929.798 394.399L928.198 394.499L926.998 394.699L925.598 394.499L925.098 394.299L924.598 393.999L922.298 390.799L921.798 389.899L921.298 389.399L920.598 388.999L917.598 387.999L916.698 387.899L915.998 387.999L915.698 388.199L915.198 388.099L914.398 387.899L912.798 386.999H912.198L911.898 387.299L911.798 388.599L911.498 388.499L910.898 387.599L909.698 385.199L907.898 382.599L909.598 380.899L908.698 378.999L907.998 378.099L907.898 377.499L908.198 377.099L910.098 375.299L910.798 374.799L911.598 373.699L917.598 372.099L919.498 372.999L921.898 371.899L922.598 371.699H923.898L925.298 371.799L926.898 371.599L934.498 373.499L935.498 373.599L936.498 373.399L939.998 373.299L940.798 373.099L941.199 372.899L941.399 372.799L941.899 372.399L943.298 365.999L943.598 364.699L946.899 363.699L949.098 363.399L949.499 362.999L950.199 360.999L950.499 360.499L951.598 359.599L952.299 360.099L953.999 362.699L955.199 363.499L956.899 363.999L959.999 364.299L960.299 364.499L960.399 364.799V365.199L960.299 365.699V367.499L961.399 367.999L962.799 368.099L963.999 368.599L966.399 372.499L968.199 374.399L970.499 375.399L972.999 375.699L980.499 374.999L982.699 375.699L982.999 377.899L982.799 379.199L983.599 379.099L986.299 377.199L990.599 375.199L991.499 375.799L992.299 376.999L993.499 377.799L996.899 377.599L998.699 377.999L998.999 379.499L997.199 381.899L994.499 383.499L988.999 385.499L983.999 388.599L979.799 389.699L977.799 390.599L976.399 392.699L975.699 397.799L973.999 398.599L971.899 397.599H970.799L970.399 398.899L970.299 399.999L969.999 401.099L969.499 401.999L968.599 402.799L966.299 402.899L962.199 400.099L959.999 399.799L958.299 398.899L956.399 396.699L954.399 394.999L952.699 395.799L952.499 396.999L953.799 399.099L953.699 400.499L953.399 401.799V402.599L953.899 403.299L956.399 405.099L956.999 406.699V408.499L956.299 410.399L955.098 411.999L953.799 412.299L952.199 411.699L948.799 409.699L947.899 409.399L945.298 409.499L944.499 409.199L944.798 408.499L945.499 408.299L946.499 408.199L947.298 407.999L947.598 407.199L946.999 406.699L945.999 406.599L945.499 406.699Z" fill="url(#paint2_linear_38_2009)" stroke="white" stroke-width="2" stroke-linecap="round" stroke-linejoin="round"/>
<path d="M918.102 448.998L917.202 449.198L915.802 448.698L914.602 448.198L913.402 447.298L912.802 446.198L913.802 444.998H915.202L916.202 444.498L918.302 442.898L919.802 442.398L920.002 443.198L918.702 448.098L918.102 448.998ZM884.002 438.398L884.402 438.498L884.702 438.298L885.302 437.798L885.702 437.598L887.102 437.198L887.902 437.398L888.302 438.098L887.902 439.298L885.202 441.198L884.302 442.098L884.402 444.098L887.002 446.798L886.902 449.198L886.202 450.098L885.402 450.398H883.502L880.702 451.198L879.902 451.098L879.202 450.398L879.102 449.598L878.802 448.998L877.702 448.898L877.002 449.398L876.202 450.198L875.402 450.698L874.702 450.298L874.602 448.398L877.102 444.498L876.802 442.198L876.102 441.698L874.602 441.398L873.802 440.998L873.202 439.998L871.702 436.898L871.402 435.598L871.502 434.398L871.802 432.998L872.802 430.698L874.602 429.698L875.902 430.498L876.902 432.298L877.702 434.398L878.702 435.698L880.302 436.698L883.502 438.098L883.702 438.298L884.002 438.398ZM907.902 382.598L909.702 385.198L910.902 387.598L911.502 388.498L911.802 388.598L911.902 387.298L912.202 386.998H912.802L914.402 387.898L915.202 388.098L915.702 388.198L916.002 387.998L916.702 387.898L917.602 387.998L920.602 388.998L921.302 389.398L921.802 389.898L922.302 390.798L924.602 393.998L925.102 394.298L925.602 394.498L927.002 394.698L928.202 394.498L929.802 394.398L932.602 395.298L936.102 395.998L937.102 395.898L937.702 395.098L938.302 394.598L939.102 395.198L940.202 396.898L940.602 397.198L941.302 397.298L944.302 398.198L945.102 398.898L945.202 399.298V399.798V400.698L945.002 402.098L944.802 403.498L944.902 404.498L945.402 406.298L945.502 406.698L942.902 406.798L941.902 406.998L938.002 409.198L937.502 409.998L937.102 411.398L936.302 413.498L934.802 415.098L929.702 417.598L929.402 418.698L929.802 419.898L930.902 420.598L932.602 421.398L933.402 421.998L933.702 422.598L933.302 423.398L932.502 423.598L931.602 423.498L930.902 423.198L930.502 423.098H930.102L929.402 423.298L927.202 423.098L924.902 422.598L922.702 422.698L920.902 424.498L919.902 426.898L919.202 427.998L918.302 428.898L915.202 430.698L914.402 430.898L913.202 430.398L912.902 429.198V426.098L912.502 424.598L911.702 422.898L910.602 421.998L909.602 422.898L909.202 424.398L909.102 425.698L908.602 426.598L907.202 426.698L904.402 426.198L903.102 425.598L901.902 424.898L900.802 423.798L900.302 422.698L899.802 421.798L897.202 420.998L895.402 419.298L894.202 419.198L892.402 419.398L891.402 419.298L890.602 418.898L890.002 418.198L889.502 417.398L888.902 416.998L888.102 417.198L887.102 418.598L886.602 420.298L885.802 421.598L884.002 421.798L877.202 420.798L873.802 421.398L871.702 423.498L870.502 423.398L865.402 423.898L857.102 426.398L854.602 426.598L852.202 426.498L849.802 424.798L848.802 421.598L848.002 417.998L846.502 415.498L845.202 414.998L844.102 415.098L843.002 415.398L841.702 415.498L840.502 415.198L837.602 413.898L838.402 411.198L838.202 410.898L837.702 410.298L837.602 410.198L836.902 409.098L836.802 408.898L836.702 408.498L836.602 406.898L837.502 405.398L839.202 404.298L843.202 403.398L843.802 403.098L844.402 402.398L845.802 399.998L846.602 399.198L847.402 398.798L848.202 398.598L849.102 398.198L849.802 397.498L851.902 394.998L855.402 392.098L856.302 391.298L857.102 390.598L857.602 390.398L858.602 390.198L858.802 389.898L858.902 389.498L859.102 389.198L860.002 388.598L861.502 387.698L862.102 386.898L862.602 386.198L863.302 385.498L864.202 384.998L865.002 384.898L866.602 385.098L867.402 384.998L870.102 382.498H871.302L872.202 382.898L872.702 383.198L873.102 383.598L874.902 383.798L881.502 383.498L877.802 388.498L878.102 388.898L880.402 389.098L880.802 389.298L882.502 391.098L882.902 391.298L883.502 391.498L884.602 391.698L885.202 391.898L886.402 392.898L889.102 394.398L889.902 394.598L891.202 394.398L895.002 390.798L896.802 387.898L898.002 386.998L903.102 384.198L907.902 382.598Z" fill="url(#paint3_linear_38_2009)" stroke="white" stroke-width="2" stroke-linecap="round" stroke-linejoin="round"/>
<path d="M943.601 364.7L943.301 366L941.901 372.4L941.401 372.8L941.201 372.9L940.801 373.1L940.001 373.3L936.501 373.4L935.501 373.6L934.501 373.5L926.902 371.6L925.301 371.8L923.902 371.7H922.601L921.902 371.9L919.501 373L917.601 372.1L911.601 373.7L910.801 374.8L910.101 375.3L908.202 377.1L907.902 377.5L908.002 378.1L908.702 379L909.601 380.9L907.902 382.6L903.101 384.2L898.002 387L896.802 387.9L895.002 390.8L891.202 394.4L889.902 394.6L889.102 394.4L886.402 392.9L885.202 391.9L884.602 391.7L883.502 391.5L882.902 391.3L882.502 391.1L880.802 389.3L880.402 389.1L878.102 388.9L877.802 388.5L881.502 383.5L874.902 383.8L873.102 383.6L872.702 383.2L872.202 382.9L871.302 382.5H870.102L867.402 385L866.602 385.1L865.002 384.9L864.202 385L863.302 385.5L862.602 386.2L862.102 386.9L861.502 387.7L860.002 388.6L860.102 388L860.602 385.4L858.402 384.1L853.102 382.8L852.202 381.7L852.002 380.3L852.602 379.4L853.702 379.2L855.702 381L856.902 381.4L857.002 380L856.502 379.3L845.902 367.3L844.102 365.7L843.902 365.5L843.802 365.2L842.602 364L843.102 362.2L842.902 356.5L842.702 354.8L841.502 352.8L840.302 351.2L840.002 350.6L839.802 350.1V349.5L839.902 349.1L841.002 346.7L841.202 346.2L841.502 345.2L841.302 344.5L839.702 344.3L839.502 344L839.302 343.6L839.202 342.4L839.102 341.5L839.202 341L839.302 340.5L842.202 336.7L842.702 335.8L843.402 333.9H843.802L845.702 333.2L852.902 329.1L854.802 328.8L855.902 329.5L856.902 330.8L860.202 336.4L860.702 338L860.802 339.6L860.002 344.4L860.102 345.7L860.802 346.8L861.702 346.7L862.902 346.1L864.202 346L865.302 346.5L866.302 347.2L867.302 348.2L868.102 349.3L869.102 350.3L870.302 350.4L872.802 350.1L875.602 350.6L876.902 351.2L878.102 352.1L879.102 352.7L881.302 353L882.202 353.8L883.702 356.2L884.602 356.9L885.202 355.4L885.102 353.8L884.802 352.4L884.902 351.3L886.102 350.6L887.502 350.8L888.202 351.7L888.902 354.6L889.402 355.7L890.202 356.5L891.002 356.4L891.602 354.9L893.002 353.1L897.002 356.5L898.302 355.4L898.601 352.7L898.101 339.4L898.502 338.4L899.302 338.6L902.101 341.2L904.601 342.3L906.601 341.9L908.202 340.2L910.101 336L910.902 333.4L911.202 331.9L911.002 330.5L909.301 328.3L908.702 327L909.902 324.1L910.601 323.2L911.902 322.7L913.202 322.9L913.902 323.9L914.202 325.4V327L913.101 331.4L913.202 332.3L913.702 332.5L914.101 331.9L914.301 331.1L914.601 330.6L915.202 330.9L915.501 332.1L916.101 332.4L916.501 332L916.601 330.3L917.001 330L917.402 330.2L917.902 330.6L923.402 338.8L924.301 341.1L924.601 343.7L924.501 346.9L924.801 350.2L926.301 350.9L930.902 350.1L932.301 351.3L933.201 352.6L934.201 353.1L935.901 352.1L937.201 350.9L938.601 350.1L940.001 349.8L941.501 350.7L942.101 352.2L942.401 354.3L942.501 356.5L943.001 360.5V362L942.601 363.4L941.801 365.3L943.601 364.7ZM853.402 368.9L852.702 367L851.902 365.7L850.502 364.5L848.902 363.8L848.002 364L848.602 365.6L849.702 366.7L851.402 369L852.402 369.9L853.502 370.2L853.402 368.9Z" fill="#BBBBBB" stroke="white" stroke-width="2" stroke-linecap="round" stroke-linejoin="round"/>
<path d="M715.301 391.1L715.101 394.2L714.401 395L711.201 395.6L710.401 395.7L710.101 395.9L709.801 396.1L709.701 396.5L709.601 398.3L709.201 401.2L709.401 401.6L709.701 401.9L710.601 401.7L711.701 401.4H712.201L712.401 402.3L705.501 418.1L705.301 419.2L705.101 420.4L705.401 422.5L705.601 423.1L705.901 423.7L706.201 423.9L707.801 424.2L721.001 424.5L738.401 420.2H738.601L738.701 420.3L738.401 420.9L738.101 421.3L737.901 421.7L737.601 422.2L736.801 425.1L736.601 425.6L736.401 426.3L737.101 427.6V427.7L734.801 428.3L733.601 429.2L735.101 430.8L737.701 432.5L739.701 433.3L740.301 433.2L737.801 436.5L736.901 438.1L736.601 438.9V439.5V440L736.701 440.4L736.901 441.1L737.301 441.9L737.701 443.3L737.901 444L738.001 444.4V445.1L737.901 447.6L737.701 448H737.401L737.301 447.7L737.001 447.4L736.701 447.3L736.401 447.2L735.901 447.5L735.801 447.8L736.001 448.1L736.201 448.4L737.301 449L737.601 449.3L737.701 449.6L737.601 450L737.501 450.5L737.201 451.2L737.101 452.4L737.001 453.1H736.801L736.201 453L735.601 454.7L735.001 466.9L734.701 468.7L733.901 470.2L732.501 471.6L730.001 473.2L729.201 474.3L729.901 475.8L728.701 476.3L725.101 477.3L722.301 477.5L719.401 477.3L714.701 475.6L706.001 475.4L686.101 470.2L683.401 470.1L681.201 470.8L675.801 474.7L671.201 475.4L670.001 476.6L670.401 479.9L670.201 480.2L670.001 480.4L669.701 480.5L669.401 480.6L667.901 480.4L667.001 480.5L662.601 476.6L660.201 474.5L659.401 473.5L658.801 472.2L658.901 467L659.101 466.4L659.501 465.7L660.201 465.5H662.001L662.501 465.4L663.001 465.2L663.301 464.8L663.401 464.4V463.5V463L663.301 462.3L663.201 461.9L663.101 461.4V460.7V459.6L663.301 459.1L663.401 458.7L663.801 458.3L664.701 457.6L666.601 456.6L667.801 456.2L669.401 455.8H669.801L670.701 455.6L670.901 455L669.401 447.9L668.401 446.3L658.301 444.4L657.001 444.3L656.401 444.5L655.901 444.4L655.501 444.2L654.501 443.6H654.101L653.701 443.7L652.801 443.8L652.101 443.7L647.501 442.4L646.801 441.3L646.601 441.4H646.301L645.501 441.7L643.501 439.5L643.401 439.1V438.4L643.601 437.9L643.501 436.9L643.201 436.4L642.801 436.1H642.401H642.001L641.701 436.2L640.601 436.7L640.301 436.8L639.801 436.9H639.301L638.601 436.7L638.401 436.4L638.201 436L637.901 432.6L638.001 432.2L638.101 431.8L638.401 431.6L639.501 431.3L639.801 431L640.001 430.8L640.201 430.1L640.301 428.3L638.701 426.4L638.501 425.8V425.2L638.701 424.8V424.2L638.501 423.9L638.201 423.6L637.001 423.1L636.601 422.7L636.401 422.3L636.201 422L635.401 418L635.301 416.7L635.201 413.1V412.6L635.301 412.1L635.401 411.7L635.901 410.5L636.201 409.4L636.301 408.4L636.201 407.6L635.901 406.9L635.501 405.9L635.201 405.5L634.901 405.2L634.501 405.3L633.001 405.6L631.701 405.7L630.701 405.5L629.801 405.3L627.401 404.6L620.101 404.3L619.601 403.9L628.501 386.6L630.101 382.5L628.801 380.2L628.301 378.9L628.201 378.5V377.2L628.401 375.8V375.1V374.5L628.201 374.2L628.001 373.9L627.701 373.6L622.501 372.2L621.701 371.7L621.301 371.5L620.801 370.9L620.501 370.2L620.301 369.9L620.201 369.5L619.301 358.7L620.001 357.8L620.501 356.6L627.601 353.7V353.4L630.901 354.3L637.701 353.9L643.401 353.5L658.001 352.6L665.501 352.2L677.701 351.4L685.101 351L686.501 351.4L688.901 352.7L690.201 353.1L691.301 352.9L693.001 351.8L694.701 350.7L696.101 349.7L696.501 350.9L696.801 351.9L697.001 352.1L697.401 352.9L698.701 354.6L700.001 356.3L700.601 357.7L700.801 359.2L701.001 360.6L701.401 361.3L701.801 361.9L702.501 361.3L703.201 361L703.901 361.1L704.601 361.9L705.401 360.2L706.601 360.1L706.801 361.7V361.9L706.701 362.6L707.301 362.8L707.401 362.9L706.101 363.9L705.601 364.2L706.101 364.4L706.301 364.8L706.801 365.7V367.9L706.501 369.2L706.201 370.5L705.801 371.7L705.401 373L704.501 375L703.801 376L703.001 377L702.001 377.7L700.001 378.7L699.401 379.1L699.301 379.7L699.601 380L701.901 380.5L703.701 381.5L709.001 386.8L711.001 388.3L712.901 389.9L715.301 391.1Z" fill="url(#paint4_linear_38_2009)" stroke="white" stroke-width="2" stroke-linecap="round" stroke-linejoin="round"/>
<path d="M737 453.1L737.1 452.4L737.2 451.2L737.5 450.5L737.6 450L737.7 449.6L737.6 449.3L737.3 449L736.2 448.4L736 448.1L735.8 447.8L735.9 447.5L736.4 447.2L736.7 447.3L737 447.4L737.3 447.7L737.4 448H737.7L737.9 447.6L738 445.1V444.4L737.9 444L737.7 443.3L737.3 441.9L736.9 441.1L736.7 440.4L736.6 440V439.5V438.9L736.9 438.1L737.8 436.5L740.3 433.2L753.9 430.5L756.6 432.4L757 433.5L757.1 434.7V435.8L756.6 436.7L755.3 436.9L751 436.3L749.9 436.6L747.8 438.4L747 438.7L745.7 436.3L744.8 435.6L744.1 437L744.2 437.7L745.2 438.5L745.4 439.1L745.3 440.6L745.4 441.3L745.7 442.1L750.8 449.2L751 450.9L748.5 451.9L747.2 449.8L746.3 446.6L745.1 444L743.9 443.1L743.5 443.7L743.7 445.1L744.3 446.8L745.6 449.5L745.5 450.6L744.8 452.1L744.6 452.2L744 452.3L743.8 452.4L743.4 453.6V454.1L743.3 454.8L742.9 455.3L742.1 454.9L740.6 452.4L739.6 451.6L737.6 453.4L737 453.1ZM762.2 425.2L760.3 424.2L759 424L749.6 425.5L748.4 426L746.4 427.1L745 427.3L741.7 426.7L740.4 426.8L737.1 427.7V427.6L736.4 426.3L736.6 425.6L736.8 425.1L737.6 422.2L737.9 421.7L738.1 421.3L738.4 420.9L738.7 420.3L738.6 420.2H738.4L721 424.5L707.8 424.2L706.2 423.9L705.9 423.7L705.6 423.1L705.4 422.5L705.1 420.4L705.3 419.2L705.5 418.1L712.4 402.3L712.2 401.4H711.7L710.6 401.7L709.7 401.9L709.4 401.6L709.2 401.2L709.6 398.3L709.7 396.5L709.8 396.1L710.1 395.9L710.4 395.7L711.2 395.6L714.4 395L715.1 394.2L715.3 391.1L719.8 393.5L726.6 397.1L726.8 396.7L727.5 396H728.4L728.8 395.5L729.2 394.8L729.7 394.5L730.4 394.6L732.7 395.7L734.2 396L735.5 395.2L735.8 394.2L734.7 393.6L736.1 391.3L736.2 390.8L735.7 389.9L735.4 389L735.1 388L735.2 387L733.7 386.7L733.2 386.4L732.7 385.8L732.3 384.3L732 381.1L731.7 377.9L731.8 377.3L731.9 376.7L732.3 376.3L732.6 376L733 375.2L733.1 374.4L732.9 372.7L733 371.9L733.2 372L733.8 372.2L734 372.4L734.7 370.6L736.3 369.5L737.5 368.9L740.5 371.6L740.9 372.3L741.1 373.1L741.2 374.9L741.4 375.5L741.7 375.7L742.2 375.3H742.4L742.6 375.8L742.8 377.1L743.7 376.7L745 377L746.3 377.5L747.2 378.2L747.7 378.9L748.3 380.2L748.8 380.7L749.2 381L750.7 381.8L751.4 382.3L751.7 382.7L752.3 384V384.3L752.2 385.2L752.3 385.6L752.7 385.9L753.1 386L753.5 385.9L753.9 386L754.7 386.8L755.3 387.7L755.5 388.7L754.7 389.7L755.6 390.3L756.4 390L757.2 389.5L758.1 389.2L758.7 389.5L758.4 390.3L757.5 391.8L760 391.4L761 391.5L761.7 393.4L762.8 394.3L763.1 395L762.8 395.6L761.9 396.5V397.1L762.3 397.4L762.9 397L763.5 396.3L764.1 396L764.6 396.3L765 396.8V397.3L763.5 398L763 399.1L762.3 401.8L763 401.7L763.6 401.8L764.2 402L764.7 402.4L763.6 403L763.7 403.6L764.3 404.2L764.7 404.7L764.8 405.3L765 406L765.1 406.7L764.9 407.3L764 408.4L763.7 409L763.4 409.7L763.2 410.3L762 417.3L762.8 419.4L763.2 420L763.3 421.1L762.5 424.1L762.2 425.2Z" fill="#BBBBBB" stroke="white" stroke-width="2" stroke-linecap="round" stroke-linejoin="round"/>
<path d="M843.398 333.899L842.698 335.799L842.198 336.699L839.298 340.499L839.198 340.999L839.098 341.499L839.198 342.399L839.298 343.599L839.498 343.999L839.698 344.299L841.298 344.499L841.498 345.199L841.198 346.199L840.998 346.699L839.898 349.099L839.798 349.499V350.099L839.998 350.599L840.298 351.199L841.498 352.799L842.698 354.799L842.898 356.499L843.098 362.199L842.598 363.999L841.898 363.199L839.298 362.099L837.098 362.699L835.498 370.799L832.298 374.599L828.098 377.199L822.098 379.599L816.598 383.799L805.898 387.199L804.598 387.799L803.398 388.799L800.998 391.899L799.598 393.099L798.098 393.599L796.298 392.999L795.498 392.299L794.898 391.499L793.898 389.699L793.198 388.899L791.798 387.899L791.098 387.299L788.798 383.799L787.498 382.499L785.598 382.299L784.698 381.799L783.998 380.999L783.198 380.399L782.198 380.299L780.298 380.899L779.398 381.399L778.498 382.099L777.098 383.999L776.198 385.999L775.798 388.299L775.698 391.099L776.098 395.199L775.898 396.199L774.998 396.699L771.498 396.999L769.398 398.499V400.099L771.698 403.999H771.798L772.998 408.299L773.598 409.699L775.098 412.399L775.698 413.899L776.098 415.599L775.598 419.299L773.798 419.599L771.498 418.799L769.998 418.999L770.298 421.199L774.498 424.999V426.799L772.298 427.799L769.398 427.699L764.198 426.199L762.198 425.199L762.498 424.099L763.298 421.099L763.198 419.999L762.798 419.399L761.998 417.299L763.198 410.299L763.398 409.699L763.698 408.999L763.998 408.399L764.898 407.299L765.098 406.699L764.998 405.999L764.798 405.299L764.698 404.699L764.298 404.199L763.698 403.599L763.598 402.999L764.698 402.399L764.198 401.999L763.598 401.799L762.998 401.699L762.298 401.799L762.998 399.099L763.498 397.999L764.998 397.299V396.799L764.598 396.299L764.098 395.999L763.498 396.299L762.898 396.999L762.298 397.399L761.898 397.099V396.499L762.798 395.599L763.098 394.999L762.798 394.299L761.698 393.399L760.998 391.499L759.998 391.399L757.498 391.799L758.398 390.299L758.698 389.499L758.098 389.199L757.198 389.499L756.398 389.999L755.598 390.299L754.698 389.699L755.498 388.699L755.298 387.699L754.698 386.799L753.898 385.999L753.498 385.899L753.098 385.999L752.698 385.899L752.298 385.599L752.198 385.199L752.298 384.299V383.999L751.698 382.699L751.398 382.299L750.698 381.799L749.198 380.999L748.798 380.699L748.298 380.199L747.698 378.899L747.198 378.199L746.298 377.499L744.998 376.999L743.698 376.699L742.798 377.099L742.598 375.799L742.398 375.299H742.198L741.698 375.699L741.398 375.499L741.198 374.899L741.098 373.099L740.898 372.299L740.498 371.599L737.498 368.899L739.798 367.899L740.998 366.499L742.098 363.399L743.198 360.299L743.898 359.399L744.798 358.499L746.798 357.599L748.698 356.699L750.198 354.199L750.598 353.699L750.898 353.199L752.098 352.799L754.598 352.499L755.698 351.999L756.698 351.499L757.698 350.799L758.698 350.099L759.698 349.099L760.198 348.199L760.598 344.499L761.098 340.899L760.998 339.599L760.898 338.699L760.698 338.399L760.398 338.199L759.898 337.499L759.698 336.899L759.998 336.299L760.498 335.899L763.198 334.599L764.298 334.299L765.298 334.699L765.898 333.099L767.398 331.699L768.898 330.699L770.498 329.699L771.498 329.399L773.198 330.099L773.998 329.999L776.298 328.499L777.098 328.299L778.898 328.599L780.598 328.899L781.298 328.499L781.198 327.699L780.198 325.899L779.998 325.099L780.398 324.099L780.798 323.099L782.298 321.899L785.598 320.899L788.598 318.499L791.498 316.199L792.398 315.199L793.198 314.299L794.198 313.499L798.098 312.399L801.998 311.299L805.298 311.199L808.498 310.999L810.898 309.999L812.698 307.899L813.498 306.699L814.398 305.999L815.998 305.399L817.598 304.799L822.498 301.2L823.198 300.299L823.898 299.499L825.898 296L827.898 292.6L828.698 291.7L829.698 291.2L830.798 290.8L831.698 290.3L832.498 289.5L832.698 288.8L832.898 288.1L834.298 284.9L835.598 283.8L836.798 282.7L842.498 280.3L843.298 280.4L844.398 281.2L845.298 282.2L845.798 283.3L846.198 284.7L847.098 285.6L848.298 286.1L849.698 286.3L850.598 285.9L851.498 285.5L852.698 283.2L853.298 281.7L853.798 280.3L855.098 277.7L855.998 276.8L856.798 275.8L857.398 274.7L857.898 273.3L858.698 272.1H860.098L862.798 272.8L864.998 272.5L866.098 272L867.198 271.4L871.098 268.2L872.398 267L874.898 265L876.798 264.8L878.598 265.6L886.798 271.4L888.798 272.1L887.998 275.1L885.798 276.6L880.998 278L872.798 284.1L870.398 284.7L867.498 284.6L865.198 285.2L864.098 288.1L863.998 292.6L863.298 293.9L861.298 294.7L855.498 295.299L853.698 296.399L847.998 301.299L845.498 304.299L843.798 307.999L842.398 310.099L840.598 311.199L838.698 312.199L835.298 314.899L825.898 320.499L824.598 322.499L825.698 324.999L827.798 326.099L835.998 326.999L836.098 327.099L838.198 328.399L839.198 329.299L840.098 330.399L841.498 333.099L842.398 333.899H843.398ZM778.998 342.199L778.398 341.499L778.898 340.799L778.298 339.899L777.498 339.399L778.398 337.899L778.098 336.599L775.998 335.199L774.198 334.999L772.798 333.999L770.898 334.099L767.798 337.199L767.298 339.599L765.798 343.399L765.998 343.499L766.998 342.999L767.098 343.899L767.498 344.799L768.898 346.399L769.898 345.499V345.799L769.598 346.499L770.298 347.799L771.998 348.299L773.898 345.999L776.798 343.299L778.998 342.199Z" fill="url(#paint5_linear_38_2009)" stroke="white" stroke-width="2" stroke-linecap="round" stroke-linejoin="round"/>
<path d="M779.001 342.199L776.801 343.299L773.901 345.999L772.001 348.299L770.301 347.799L769.601 346.499L769.901 345.799V345.499L768.901 346.399L767.501 344.799L767.101 343.899L767.001 342.999L766.001 343.499L765.801 343.399L767.301 339.599L767.801 337.199L770.901 334.099L772.801 333.999L774.201 334.999L776.001 335.199L778.101 336.599L778.401 337.899L777.501 339.399L778.301 339.899L778.901 340.799L778.401 341.499L779.001 342.199Z" fill="#BBBBBB" stroke="white" stroke-width="2" stroke-linecap="round" stroke-linejoin="round"/>
</g>
<circle cx="889" cy="433" r="30" fill="white"/>
<circle cx="889" cy="433" r="27" stroke="#2D7BBD" stroke-opacity="0.2" stroke-width="6"/>
<path d="M885.075 436.175H887.075V438.85H885.075V442H882.175V438.85H873.575V436.175L879.6 424.5H882.725L876.7 436.175H882.175V431.625H885.075V436.175ZM900.677 439.85C899.477 441.5 897.794 442.325 895.627 442.325C893.477 442.325 891.785 441.5 890.552 439.85C889.352 438.2 888.752 436 888.752 433.25C888.752 430.5 889.352 428.3 890.552 426.65C891.785 425 893.477 424.175 895.627 424.175C897.794 424.175 899.477 425 900.677 426.65C901.894 428.283 902.502 430.483 902.502 433.25C902.502 436.017 901.894 438.217 900.677 439.85ZM895.627 439.525C896.927 439.525 897.919 438.983 898.602 437.9C899.285 436.817 899.627 435.267 899.627 433.25C899.627 431.233 899.285 429.683 898.602 428.6C897.919 427.517 896.927 426.975 895.627 426.975C894.344 426.975 893.352 427.517 892.652 428.6C891.969 429.683 891.627 431.233 891.627 433.25C891.627 435.267 891.969 436.817 892.652 437.9C893.352 438.983 894.344 439.525 895.627 439.525Z" fill="#373737"/>
<circle cx="979" cy="359" r="30" fill="white"/>
<circle cx="979" cy="359" r="27" stroke="#2D7BBD" stroke-opacity="0.2" stroke-width="6"/>
<path d="M967.325 352.125L971.925 350.5H974.425V368H971.55V353.575L968.025 354.575L967.325 352.125ZM981.227 357.1H983.427C985.093 357.1 986.502 357.6 987.652 358.6C988.802 359.583 989.377 360.95 989.377 362.7C989.377 364.45 988.785 365.825 987.602 366.825C986.435 367.825 984.985 368.325 983.252 368.325C981.835 368.325 980.602 368 979.552 367.35C978.502 366.7 977.752 365.775 977.302 364.575L979.777 363.15C980.26 364.733 981.418 365.525 983.252 365.525C984.235 365.525 985.018 365.275 985.602 364.775C986.202 364.258 986.502 363.567 986.502 362.7C986.502 361.85 986.21 361.175 985.627 360.675C985.043 360.158 984.268 359.9 983.302 359.9H978.202L978.877 350.5H988.627V353.2H981.527L981.227 357.1Z" fill="#373737"/>
<circle cx="563" cy="547" r="30" fill="white"/>
<circle cx="563" cy="547" r="27" stroke="#2D7BBD" stroke-opacity="0.2" stroke-width="6"/>
<path d="M560.9 540.95L557.35 545.65C558.65 545.95 559.683 546.55 560.45 547.45C561.233 548.333 561.625 549.417 561.625 550.7C561.625 552.45 561.033 553.825 559.85 554.825C558.683 555.825 557.233 556.325 555.5 556.325C554.133 556.325 552.925 556.017 551.875 555.4C550.825 554.767 550.075 553.867 549.625 552.7L552.075 551.275C552.592 552.775 553.733 553.525 555.5 553.525C556.5 553.525 557.292 553.275 557.875 552.775C558.458 552.258 558.75 551.567 558.75 550.7C558.75 549.833 558.458 549.15 557.875 548.65C557.292 548.15 556.5 547.9 555.5 547.9H554.85L553.7 546.175L557.475 541.2H550.15V538.5H560.9V540.95ZM567.182 545.1H569.382C571.049 545.1 572.457 545.6 573.607 546.6C574.757 547.583 575.332 548.95 575.332 550.7C575.332 552.45 574.74 553.825 573.557 554.825C572.39 555.825 570.94 556.325 569.207 556.325C567.79 556.325 566.557 556 565.507 555.35C564.457 554.7 563.707 553.775 563.257 552.575L565.732 551.15C566.215 552.733 567.374 553.525 569.207 553.525C570.19 553.525 570.974 553.275 571.557 552.775C572.157 552.258 572.457 551.567 572.457 550.7C572.457 549.85 572.165 549.175 571.582 548.675C570.999 548.158 570.224 547.9 569.257 547.9H564.157L564.832 538.5H574.582V541.2H567.482L567.182 545.1Z" fill="#373737"/>
<circle cx="675" cy="422" r="30" fill="white"/>
<circle cx="675" cy="422" r="27" stroke="#2D7BBD" stroke-opacity="0.2" stroke-width="6"/>
<path d="M661.375 416.25V413.5H672.5V416L666.35 431H663.325L669.375 416.25H661.375ZM685.454 428.85C684.254 430.5 682.571 431.325 680.404 431.325C678.254 431.325 676.563 430.5 675.329 428.85C674.129 427.2 673.529 425 673.529 422.25C673.529 419.5 674.129 417.3 675.329 415.65C676.563 414 678.254 413.175 680.404 413.175C682.571 413.175 684.254 414 685.454 415.65C686.671 417.283 687.279 419.483 687.279 422.25C687.279 425.017 686.671 427.217 685.454 428.85ZM680.404 428.525C681.704 428.525 682.696 427.983 683.379 426.9C684.063 425.817 684.404 424.267 684.404 422.25C684.404 420.233 684.063 418.683 683.379 417.6C682.696 416.517 681.704 415.975 680.404 415.975C679.121 415.975 678.129 416.517 677.429 417.6C676.746 418.683 676.404 420.233 676.404 422.25C676.404 424.267 676.746 425.817 677.429 426.9C678.129 427.983 679.121 428.525 680.404 428.525Z" fill="#373737"/>
<circle cx="268" cy="353" r="30" fill="white"/>
<circle cx="268" cy="353" r="27" stroke="#2D7BBD" stroke-opacity="0.2" stroke-width="6"/>
<path d="M265.3 362H253.775V359.75L259.875 353.525C261.358 352.042 262.1 350.758 262.1 349.675C262.1 348.842 261.85 348.183 261.35 347.7C260.85 347.217 260.2 346.975 259.4 346.975C257.933 346.975 256.85 347.7 256.15 349.15L253.725 347.725C254.258 346.575 255.025 345.7 256.025 345.1C257.025 344.483 258.142 344.175 259.375 344.175C260.925 344.175 262.242 344.658 263.325 345.625C264.425 346.608 264.975 347.925 264.975 349.575C264.975 351.342 263.983 353.242 262 355.275L258.05 359.225H265.3V362ZM279.163 359.85C277.963 361.5 276.28 362.325 274.113 362.325C271.963 362.325 270.272 361.5 269.038 359.85C267.838 358.2 267.238 356 267.238 353.25C267.238 350.5 267.838 348.3 269.038 346.65C270.272 345 271.963 344.175 274.113 344.175C276.28 344.175 277.963 345 279.163 346.65C280.38 348.283 280.988 350.483 280.988 353.25C280.988 356.017 280.38 358.217 279.163 359.85ZM274.113 359.525C275.413 359.525 276.405 358.983 277.088 357.9C277.772 356.817 278.113 355.267 278.113 353.25C278.113 351.233 277.772 349.683 277.088 348.6C276.405 347.517 275.413 346.975 274.113 346.975C272.83 346.975 271.838 347.517 271.138 348.6C270.455 349.683 270.113 351.233 270.113 353.25C270.113 355.267 270.455 356.817 271.138 357.9C271.838 358.983 272.83 359.525 274.113 359.525Z" fill="#373737"/>
<circle cx="813" cy="336" r="30" fill="white"/>
<circle cx="813" cy="336" r="27" stroke="#2D7BBD" stroke-opacity="0.2" stroke-width="6"/>
<path d="M804.5 333.375H804.825C806.658 333.375 808.142 333.933 809.275 335.05C810.425 336.15 811 337.583 811 339.35C811 341.1 810.425 342.542 809.275 343.675C808.125 344.775 806.642 345.325 804.825 345.325C802.992 345.325 801.5 344.775 800.35 343.675C799.2 342.542 798.625 341.1 798.625 339.35C798.625 338.017 798.975 336.842 799.675 335.825L805.225 327.5H808.5L804.5 333.375ZM804.825 342.6C805.792 342.6 806.583 342.308 807.2 341.725C807.817 341.125 808.125 340.333 808.125 339.35C808.125 338.367 807.817 337.583 807.2 337C806.583 336.4 805.792 336.1 804.825 336.1C803.825 336.1 803.017 336.4 802.4 337C801.8 337.583 801.5 338.367 801.5 339.35C801.5 340.333 801.8 341.125 802.4 341.725C803.017 342.308 803.825 342.6 804.825 342.6ZM824.798 342.85C823.598 344.5 821.915 345.325 819.748 345.325C817.598 345.325 815.906 344.5 814.673 342.85C813.473 341.2 812.873 339 812.873 336.25C812.873 333.5 813.473 331.3 814.673 329.65C815.906 328 817.598 327.175 819.748 327.175C821.915 327.175 823.598 328 824.798 329.65C826.015 331.283 826.623 333.483 826.623 336.25C826.623 339.017 826.015 341.217 824.798 342.85ZM819.748 342.525C821.048 342.525 822.04 341.983 822.723 340.9C823.406 339.817 823.748 338.267 823.748 336.25C823.748 334.233 823.406 332.683 822.723 331.6C822.04 330.517 821.048 329.975 819.748 329.975C818.465 329.975 817.473 330.517 816.773 331.6C816.09 332.683 815.748 334.233 815.748 336.25C815.748 338.267 816.09 339.817 816.773 340.9C817.473 341.983 818.465 342.525 819.748 342.525Z" fill="#373737"/>
<defs>
<linearGradient id="paint0_linear_38_2009" x1="187.794" y1="105.974" x2="484.866" y2="142.108" gradientUnits="userSpaceOnUse">
<stop stop-color="#067AF2"/>
<stop offset="0.984375" stop-color="#07ABCF"/>
</linearGradient>
<linearGradient id="paint1_linear_38_2009" x1="419.822" y1="289.909" x2="824.984" y2="356.433" gradientUnits="userSpaceOnUse">
<stop stop-color="#067AF2"/>
<stop offset="0.984375" stop-color="#07ABCF"/>
</linearGradient>
<linearGradient id="paint2_linear_38_2009" x1="875.285" y1="277.196" x2="1066.46" y2="310.615" gradientUnits="userSpaceOnUse">
<stop stop-color="#067AF2"/>
<stop offset="0.984375" stop-color="#07ABCF"/>
</linearGradient>
<linearGradient id="paint3_linear_38_2009" x1="797.615" y1="275.077" x2="1027.22" y2="311.883" gradientUnits="userSpaceOnUse">
<stop stop-color="#067AF2"/>
<stop offset="0.984375" stop-color="#07ABCF"/>
</linearGradient>
<linearGradient id="paint4_linear_38_2009" x1="575.983" y1="145.021" x2="835.391" y2="169.27" gradientUnits="userSpaceOnUse">
<stop stop-color="#067AF2"/>
<stop offset="0.984375" stop-color="#07ABCF"/>
</linearGradient>
<linearGradient id="paint5_linear_38_2009" x1="683.333" y1="9.92724" x2="1007.68" y2="40.3729" gradientUnits="userSpaceOnUse">
<stop stop-color="#067AF2"/>
<stop offset="0.984375" stop-color="#07ABCF"/>
</linearGradient>
<clipPath id="clip0_38_2009">
<rect width="1000" height="651.999" fill="white"/>
</clipPath>
</defs>
</svg>
