<svg width="18" height="18" viewBox="0 0 18 18" fill="none" xmlns="http://www.w3.org/2000/svg">
<path d="M16.6674 0.001843C16.4451 0.0198484 16.2269 0.0779083 16.0213 0.173758H16.0186C15.8212 0.260871 14.8829 0.700295 13.4565 1.36637L8.34466 3.76315C4.67666 5.4823 1.07099 7.17524 1.07099 7.17524L1.11392 7.15674C1.11392 7.15674 0.865328 7.2477 0.605652 7.44583C0.445227 7.55948 0.307181 7.70818 0.199867 7.88294C0.0724531 8.09109 -0.030032 8.40948 0.00805369 8.73866C0.0703757 9.29526 0.39445 9.62907 0.627119 9.81332C0.862558 9.99988 1.08692 10.087 1.08692 10.087H1.09246L4.47377 11.3552C4.62542 11.8971 5.50416 15.1134 5.71536 15.8542C5.84001 16.2967 5.96119 16.5735 6.11284 16.7847C6.18624 16.8927 6.27211 16.9829 6.37529 17.0553C6.42892 17.0901 6.48612 17.1175 6.54563 17.137L6.51101 17.1278C6.5214 17.1309 6.52971 17.1401 6.53732 17.1432C6.56502 17.1517 6.58372 17.1548 6.61903 17.1609C7.15431 17.3413 7.58433 16.9713 7.58433 16.9713L7.60857 16.9497L9.60495 14.9261L12.9509 17.7838L13.0271 17.8201C13.7244 18.1608 14.4308 17.9712 14.804 17.6366C15.18 17.2997 15.3261 16.8688 15.3261 16.8688L15.3503 16.7994L17.936 2.05249C18.0094 1.68861 18.0281 1.34787 17.9471 1.01714C17.8635 0.682429 17.6706 0.394554 17.4063 0.209991C17.1843 0.0597504 16.9269 -0.012767 16.6674 0.001843ZM16.5975 1.58223C16.5947 1.63079 16.603 1.6254 16.5836 1.71868V1.72716L14.0222 16.3206C14.0111 16.3415 13.9924 16.3869 13.9412 16.4324C13.8872 16.4802 13.8442 16.5103 13.6192 16.4108L9.5267 12.9178L7.0546 15.4264L7.57395 11.7337L14.2604 4.79541C14.536 4.51017 14.4439 4.45004 14.4439 4.45004C14.4633 4.10004 14.0277 4.34751 14.0277 4.34751L5.59626 10.1625L5.59349 10.1471L1.55225 8.63227V8.62919L1.54187 8.62688C1.54895 8.62426 1.55589 8.62117 1.56264 8.61763L1.5848 8.60529L1.60627 8.59681C1.60627 8.59681 5.21471 6.90387 8.88271 5.18473C10.7191 4.32361 12.5694 3.45633 13.9924 2.78717C15.4154 2.12187 16.4673 1.63388 16.5268 1.60767C16.5836 1.583 16.5566 1.583 16.5975 1.583V1.58223Z" fill="#CCCCCC"/>
</svg>
