<svg width="19" height="18" viewBox="0 0 19 18" fill="none" xmlns="http://www.w3.org/2000/svg">
<path d="M15.414 2.61905C14.5847 1.78558 13.597 1.12475 12.5083 0.675098C11.4197 0.225444 10.252 -0.00403209 9.07329 5.36125e-05C4.1346 5.36125e-05 0.109471 4.00504 0.109471 8.91903C0.109471 10.494 0.525552 12.024 1.30344 13.374L0.0371094 18L4.78585 16.758C6.09741 17.469 7.57178 17.847 9.07329 17.847C14.012 17.847 18.0371 13.842 18.0371 8.92803C18.0371 6.54303 17.1054 4.30204 15.414 2.61905ZM9.07329 16.335C7.7346 16.335 6.42304 15.975 5.27429 15.3L5.00294 15.138L2.18083 15.876L2.93158 13.14L2.75068 12.861C2.00693 11.6793 1.61201 10.3133 1.61098 8.91903C1.61098 4.83304 4.95771 1.50305 9.06424 1.50305C11.0542 1.50305 12.9266 2.27705 14.3286 3.68104C15.0228 4.36861 15.5729 5.18643 15.9471 6.08712C16.3213 6.9878 16.5121 7.95343 16.5085 8.92803C16.5266 13.014 13.1798 16.335 9.07329 16.335ZM13.1617 10.791C12.9356 10.683 11.8321 10.143 11.6331 10.062C11.425 9.99002 11.2803 9.95402 11.1266 10.17C10.9728 10.395 10.5477 10.899 10.421 11.043C10.2944 11.196 10.1587 11.214 9.93259 11.097C9.70646 10.989 8.98284 10.746 8.13259 9.99002C7.46324 9.39603 7.02002 8.66703 6.88434 8.44203C6.75771 8.21703 6.86625 8.10003 6.98384 7.98303C7.08334 7.88403 7.20997 7.72203 7.31852 7.59603C7.42706 7.47003 7.47228 7.37103 7.54465 7.22703C7.61701 7.07403 7.58083 6.94803 7.52656 6.84003C7.47228 6.73203 7.02002 5.63404 6.83912 5.18404C6.65821 4.75204 6.46826 4.80604 6.33259 4.79704H5.89842C5.74465 4.79704 5.50947 4.85104 5.30143 5.07604C5.10244 5.30104 4.52354 5.84104 4.52354 6.93903C4.52354 8.03703 5.32857 9.09903 5.43711 9.24303C5.54565 9.39603 7.02002 11.646 9.26324 12.609C9.79691 12.843 10.213 12.978 10.5386 13.077C11.0723 13.248 11.5607 13.221 11.9497 13.167C12.3838 13.104 13.2793 12.627 13.4602 12.105C13.6502 11.583 13.6502 11.142 13.5869 11.043C13.5235 10.944 13.3879 10.899 13.1617 10.791Z" fill="#CCCCCC"/>
</svg>
