<svg width="20" height="21" viewBox="0 0 20 21" fill="none" xmlns="http://www.w3.org/2000/svg">
<g clip-path="url(#clip0_38_2776)">
<path d="M17.0833 0.75415H2.91667C2.14547 0.761749 1.40801 1.07148 0.862672 1.61682C0.317329 2.16216 0.00759852 2.89962 0 3.67082L0 14.5042C0.0293569 15.3016 0.312353 16.0689 0.807833 16.6945C1.30331 17.3201 1.98544 17.7713 2.755 17.9825L12.0542 20.1667C12.4081 20.2583 12.7781 20.2692 13.1368 20.1987C13.4955 20.1282 13.8338 19.9779 14.1267 19.7591C14.4099 19.5273 14.636 19.2334 14.7874 18.9002C14.9388 18.5669 15.0116 18.2033 15 17.8375V9.76082C14.9987 8.98578 14.744 8.23244 14.2747 7.6156C13.8055 6.99877 13.1474 6.55227 12.4008 6.34415L3.38 3.85665C3.30088 3.83476 3.22684 3.79751 3.16212 3.74701C3.0974 3.69651 3.04325 3.63375 3.00278 3.56233C2.96231 3.49091 2.93631 3.41221 2.92625 3.33074C2.91619 3.24926 2.92228 3.1666 2.94417 3.08748C2.96605 3.00836 3.00331 2.93433 3.05381 2.8696C3.10431 2.80488 3.16706 2.75074 3.23849 2.71027C3.30991 2.6698 3.38861 2.64379 3.47008 2.63373C3.55155 2.62367 3.63421 2.62976 3.71333 2.65165L6.65833 3.46415H6.66833H17.0833C17.2491 3.46415 17.4081 3.53 17.5253 3.64721C17.6425 3.76442 17.7083 3.92339 17.7083 4.08915C17.7083 4.25491 17.6425 4.41388 17.5253 4.53109C17.4081 4.6483 17.2491 4.71415 17.0833 4.71415H12.7208C12.6704 4.71404 12.6216 4.73225 12.5836 4.76538C12.5455 4.79852 12.5208 4.84433 12.514 4.89432C12.5072 4.9443 12.5187 4.99507 12.5465 5.03718C12.5743 5.0793 12.6164 5.1099 12.665 5.12332L12.7367 5.14332C13.686 5.40697 14.5303 5.95838 15.1533 6.72165C15.1731 6.74531 15.1979 6.76435 15.2258 6.77745C15.2537 6.79055 15.2842 6.79739 15.315 6.79748H17.0833C17.2491 6.79748 17.4081 6.86333 17.5253 6.98054C17.6425 7.09775 17.7083 7.25672 17.7083 7.42248C17.7083 7.58824 17.6425 7.74721 17.5253 7.86442C17.4081 7.98164 17.2491 8.04748 17.0833 8.04748H16.2183C16.1854 8.04728 16.1529 8.05492 16.1235 8.06977C16.0941 8.08461 16.0687 8.10625 16.0493 8.13287C16.0299 8.1595 16.0171 8.19036 16.0121 8.22289C16.007 8.25543 16.0097 8.28871 16.02 8.31998C16.1732 8.78556 16.2522 9.27235 16.2542 9.76248V15.5475C16.2542 15.6027 16.2761 15.6557 16.3152 15.6948C16.3543 15.7339 16.4072 15.7558 16.4625 15.7558H17.0833C17.8569 15.7558 18.5987 15.4485 19.1457 14.9015C19.6927 14.3546 20 13.6127 20 12.8392V3.67248C20.0002 3.28932 19.9249 2.90987 19.7785 2.55581C19.632 2.20175 19.4172 1.88003 19.1463 1.60901C18.8755 1.338 18.5539 1.12301 18.1999 0.976328C17.8459 0.829647 17.4665 0.75415 17.0833 0.75415ZM12.9167 13.2542C12.9167 13.5838 12.8189 13.906 12.6358 14.1801C12.4526 14.4542 12.1923 14.6678 11.8878 14.7939C11.5833 14.9201 11.2482 14.9531 10.9248 14.8888C10.6015 14.8245 10.3046 14.6657 10.0715 14.4327C9.8384 14.1996 9.67967 13.9026 9.61536 13.5793C9.55105 13.256 9.58405 12.9209 9.7102 12.6163C9.83635 12.3118 10.05 12.0515 10.324 11.8684C10.5981 11.6852 10.9204 11.5875 11.25 11.5875C11.692 11.5875 12.1159 11.7631 12.4285 12.0756C12.7411 12.3882 12.9167 12.8121 12.9167 13.2542Z" fill="url(#paint0_linear_38_2776)"/>
</g>
<defs>
<linearGradient id="paint0_linear_38_2776" x1="-7.16" y1="-29.7218" x2="35.6313" y2="-25.2813" gradientUnits="userSpaceOnUse">
<stop stop-color="#067AF2"/>
<stop offset="0.984375" stop-color="#07ABCF"/>
</linearGradient>
<clipPath id="clip0_38_2776">
<rect width="20" height="20" fill="white" transform="translate(0 0.5)"/>
</clipPath>
</defs>
</svg>
